<svg width="810.401" height="143.801" viewBox="0 0 810.401 143.801" xmlns="http://www.w3.org/2000/svg"><g id="svgGroup" stroke-linecap="round" fill-rule="evenodd" font-size="9pt" stroke="#000" stroke-width="0.25mm" fill="#000" style="stroke:#000;stroke-width:0.25mm;fill:#000"><path d="M 365.6 134.601 L 365.6 134.201 A 106.259 106.259 0 0 1 365.519 132.945 C 365.204 127.625 364.7 114.868 364.7 109.001 L 364.7 107.001 A 5.784 5.784 0 0 1 364.708 106.662 C 364.741 106.115 364.878 105.901 365.3 105.901 L 366 106.001 C 372.6 107.601 379.1 109.301 385.6 111.301 C 398.8 115.401 411.6 120.401 423.2 128.001 A 4.217 4.217 0 0 1 423.457 128.215 C 423.75 128.473 424.042 128.759 424.335 128.797 A 0.503 0.503 0 0 0 424.4 128.801 C 424.6 128.801 424.8 128.701 424.9 128.501 L 425.1 128.101 C 425.1 127.501 424.3 127.201 423.9 126.901 C 415.7 120.601 406.5 116.301 396.9 112.601 C 387.1 108.901 377.1 106.001 367 103.301 C 365.571 102.944 365.179 102.985 365.112 102.5 A 1.456 1.456 0 0 1 365.1 102.301 L 365.2 100.701 C 365.3 98.101 365.7 95.401 365.9 92.701 C 365.988 91.554 366.388 90.873 367.238 90.317 A 5.237 5.237 0 0 1 367.6 90.101 C 376.3 85.601 384.7 80.501 392.8 75.001 C 405.8 66.301 418 56.501 428.9 45.301 C 434.7 39.301 440.1 33.001 444.2 25.801 A 28.046 28.046 0 0 0 448.286 13.958 A 17.996 17.996 0 0 0 448.3 13.701 L 448.3 12.601 C 448.3 7.801 445.9 4.001 441.4 1.901 A 17.981 17.981 0 0 0 437.039 0.516 A 33.635 33.635 0 0 0 434.2 0.101 L 433.9 0.101 A 12.074 12.074 0 0 0 432.926 0.026 A 44.346 44.346 0 0 0 431.1 0.001 C 429.7 0.001 428.2 0.101 426.7 0.301 C 417.3 1.301 408.5 4.501 400 8.401 C 380.2 17.601 363.1 30.501 348.5 46.601 C 342.1 53.601 336.5 61.101 332.4 69.701 C 330.4 73.801 328.8 78.001 328.8 82.601 C 328.892 85.647 329.921 88.096 332.437 89.635 A 8.885 8.885 0 0 0 333.1 90.001 C 333.5 90.201 333.9 90.301 334.3 90.301 A 1.359 1.359 0 0 0 335.279 89.942 A 1.023 1.023 0 0 0 335.5 89.601 A 1.434 1.434 0 0 0 335.596 89.436 C 335.673 89.279 335.693 89.151 335.698 89.029 A 2.893 2.893 0 0 0 335.7 88.901 C 335.7 88.301 335.4 87.801 334.6 87.401 A 4.682 4.682 0 0 1 333.168 86.331 C 332.511 85.591 332.164 84.647 332.1 83.501 L 332 82.301 C 332 80.601 332.4 78.801 332.9 77.201 C 335.5 69.201 339.8 62.301 344.8 55.701 C 357.7 38.901 373.6 25.501 391.9 15.001 C 400.2 10.201 408.9 6.401 418.2 4.001 C 422.2 2.901 426.2 2.201 430.3 2.201 A 32.944 32.944 0 0 1 432.8 2.289 A 25.285 25.285 0 0 1 435.3 2.601 A 16.917 16.917 0 0 1 439.544 3.775 C 443.283 5.41 445.287 8.363 445.395 12.356 A 12.702 12.702 0 0 1 445.4 12.701 C 445.4 14.019 445.223 15.426 444.785 17.004 A 19.979 19.979 0 0 1 444.7 17.301 C 443.7 20.901 441.9 24.201 439.9 27.401 C 434.9 35.201 428.6 42.101 422 48.601 C 406 64.201 388.1 77.201 368.4 87.601 C 367.9 87.801 367.4 88.401 367 88.401 L 366.7 88.301 C 366.566 88.167 366.477 88.034 366.433 87.9 A 0.629 0.629 0 0 1 366.4 87.701 C 366.4 87.301 366.5 86.901 366.6 86.501 C 368 74.401 369.8 62.301 371.8 50.201 L 371.9 49.301 A 2.716 2.716 0 0 0 371.825 48.631 C 371.671 48.028 371.277 47.652 370.6 47.501 L 370.1 47.401 C 369.3 47.401 368.8 48.001 368.3 49.301 L 364.5 59.601 C 364.2 60.601 363.8 61.701 363.7 62.801 L 363.7 63.301 C 363.7 64.197 364.096 64.894 364.888 64.901 A 1.359 1.359 0 0 0 364.9 64.901 L 365.4 64.901 A 1.936 1.936 0 0 1 365.664 64.917 C 366 64.964 366.151 65.111 366.19 65.358 A 0.934 0.934 0 0 1 366.2 65.501 L 366.1 66.201 C 365.1 73.501 364.2 80.901 363.6 88.201 A 5.508 5.508 0 0 1 363.39 89.202 C 363.131 90.007 362.68 90.542 361.957 90.964 A 5.345 5.345 0 0 1 361.5 91.201 C 358.1 92.701 354.8 94.201 351.6 96.201 A 16.941 16.941 0 0 0 351.345 96.366 C 350.619 96.847 349.893 97.426 349.533 98.218 A 2.582 2.582 0 0 0 349.3 99.301 L 349.3 99.701 C 349.452 100.994 350.299 101.593 351.312 102.026 A 17.581 17.581 0 0 0 352.3 102.401 A 51.883 51.883 0 0 0 359.45 104.457 A 285.074 285.074 0 0 1 360.9 104.801 A 3.748 3.748 0 0 1 361.387 104.927 C 362.001 105.14 362.2 105.505 362.2 106.401 L 362.2 108.401 C 362.2 115.001 362.9 130.001 363.5 134.401 C 363.596 135.072 363.783 135.65 364.414 135.698 A 1.141 1.141 0 0 0 364.5 135.701 L 364.7 135.701 A 1.249 1.249 0 0 0 365.061 135.597 C 365.234 135.515 365.357 135.396 365.442 135.256 A 1.267 1.267 0 0 0 365.6 134.601 Z M 520.2 100.001 L 524.4 93.201 A 1.506 1.506 0 0 1 524.489 93.052 C 524.587 92.902 524.7 92.751 524.7 92.601 C 524.7 92.479 524.662 92.393 524.61 92.323 A 1.103 1.103 0 0 0 524.5 92.201 L 524.3 92.101 A 0.362 0.362 0 0 0 524.019 92.252 C 523.921 92.367 523.845 92.526 523.75 92.646 A 0.692 0.692 0 0 1 523.7 92.701 A 0.477 0.477 0 0 0 523.554 92.822 C 523.438 92.958 523.345 93.156 523.2 93.301 L 516.6 102.601 C 512 109.201 507.3 115.601 501.3 121.001 C 498.1 123.701 494.7 126.101 490.6 127.301 A 15.923 15.923 0 0 1 488.315 127.786 A 12.995 12.995 0 0 1 486.6 127.901 C 482.6 127.901 478.9 126.101 476.3 122.601 C 474.5 120.201 473.4 117.501 472.7 114.601 C 471.3 109.301 470.8 103.701 470.8 98.201 L 470.8 96.501 C 470.9 85.501 472.5 74.601 475.4 64.001 C 478.5 52.601 482.9 41.801 490 32.301 C 494.3 26.401 499.3 21.301 505.8 18.001 A 17.928 17.928 0 0 1 513.131 15.814 A 12.398 12.398 0 0 1 513.7 15.801 L 515.2 15.901 C 519.5 16.401 522 19.201 522.2 23.501 A 14.806 14.806 0 0 1 522.074 25.467 C 522.036 25.754 521.989 26.039 521.933 26.323 A 16.509 16.509 0 0 1 521.6 27.701 C 520.4 32.501 518.5 37.001 516.7 41.501 A 77.703 77.703 0 0 1 514.322 46.494 A 370.724 370.724 0 0 0 513.1 48.901 C 512.939 49.143 512.843 49.449 512.811 49.715 A 1.595 1.595 0 0 0 512.8 49.901 A 1.317 1.317 0 0 0 513.085 50.709 C 513.232 50.9 513.438 51.07 513.7 51.201 A 3.675 3.675 0 0 0 514.431 51.391 A 1.499 1.499 0 0 0 514.6 51.401 A 1.697 1.697 0 0 0 515.869 50.834 C 516.03 50.662 516.175 50.451 516.3 50.201 L 517 48.701 C 520.1 43.401 522.4 37.701 524.4 31.901 C 525.3 29.401 526 26.801 526.1 24.101 L 526.1 23.801 C 526.1 19.401 523.8 16.001 519.7 14.201 C 517.7 13.401 515.6 13.001 513.6 13.001 A 18.061 18.061 0 0 0 511.45 13.139 A 24.099 24.099 0 0 0 509.3 13.501 C 504.1 14.801 499.8 17.501 495.9 20.901 C 488.8 27.101 483.7 34.801 479.8 43.201 C 472 59.801 468.8 77.401 468.7 95.701 L 468.6 100.801 L 468.7 103.401 C 469 109.101 469.8 114.801 472.2 120.101 A 17.54 17.54 0 0 0 476.935 126.44 A 14.839 14.839 0 0 0 486.5 129.901 C 488.4 129.901 490.3 129.501 492.2 128.901 A 34.648 34.648 0 0 0 506.024 119.203 A 78.422 78.422 0 0 0 506.4 118.801 C 511.7 113.001 516.1 106.601 520.2 100.001 Z M 46.9 119.701 L 46.9 111.401 C 47.2 100.101 48.2 88.801 49.1 77.501 A 375.661 375.661 0 0 1 49.878 67.672 A 656.253 656.253 0 0 0 50.3 62.701 C 50.4 61.501 51 61.001 52.2 61.001 C 53.1 61.001 54 61.101 54.9 61.301 L 55.5 61.401 A 1.665 1.665 0 0 0 56.844 60.837 A 1.41 1.41 0 0 0 57.1 60.301 L 57.3 59.601 A 1.421 1.421 0 0 0 56.795 58.568 A 4.11 4.11 0 0 0 56 58.001 A 3.912 3.912 0 0 0 54.655 57.504 A 9.848 9.848 0 0 0 52.9 57.401 A 47.499 47.499 0 0 1 52.355 57.399 C 51.41 57.388 51.035 57.312 50.932 56.799 A 2.044 2.044 0 0 1 50.9 56.401 L 51 55.201 C 52 45.601 52.9 35.901 53.8 26.301 C 54 24.101 54.2 22.001 54.2 19.801 C 54.2 18.901 54.2 18.001 54.1 17.101 A 5.85 5.85 0 0 0 53.578 15.232 C 53.285 14.652 52.852 14.17 52.203 13.838 A 3.615 3.615 0 0 0 51.9 13.701 C 51.5 13.501 51.1 13.501 50.7 13.501 A 3.678 3.678 0 0 0 48.5 14.329 A 9.704 9.704 0 0 0 47.8 14.901 C 46.3 16.301 45.1 18.001 44 19.801 C 34.6 33.801 27 48.701 20.5 64.201 C 20.135 65.206 19.519 65.877 18.577 66.367 A 5.839 5.839 0 0 1 18.3 66.501 C 12.4 68.801 7 71.801 1.4 74.801 A 3.475 3.475 0 0 0 0.676 75.325 C 0.236 75.748 0 76.251 0 76.801 L 0.2 77.601 C 0.5 78.301 1.3 78.701 2.1 78.701 A 2.554 2.554 0 0 0 3.019 78.525 A 3.136 3.136 0 0 0 3.3 78.401 C 5.4 77.301 7.5 76.901 9.8 76.901 C 10.705 76.901 11.528 76.492 11.676 75.599 A 1.814 1.814 0 0 0 11.7 75.301 C 11.7 74.396 12.041 73.946 12.638 73.608 A 5.48 5.48 0 0 1 13.3 73.301 L 16.3 71.801 A 4.749 4.749 0 0 0 16.307 71.799 C 16.603 71.7 16.802 71.601 17 71.601 A 0.486 0.486 0 0 1 17.192 71.627 C 17.219 71.638 17.246 71.654 17.273 71.676 A 0.389 0.389 0 0 1 17.3 71.701 L 17.5 72.001 A 0.446 0.446 0 0 1 17.456 72.179 C 17.404 72.298 17.315 72.427 17.245 72.585 A 1.318 1.318 0 0 0 17.2 72.701 C 12.3 85.801 9.6 99.401 8.3 113.401 C 8.1 115.701 7.7 118.001 7.5 120.301 L 7.5 120.601 A 2.575 2.575 0 0 0 7.655 121.514 C 7.935 122.253 8.568 122.687 9.362 122.701 A 2.252 2.252 0 0 0 9.4 122.701 L 9.9 122.601 A 2.527 2.527 0 0 0 10.7 122.307 C 11.146 122.042 11.439 121.634 11.556 121.083 A 2.578 2.578 0 0 0 11.6 120.801 A 30.196 30.196 0 0 1 11.993 118.723 C 12.006 118.661 12.02 118.598 12.033 118.535 A 18.968 18.968 0 0 0 12.6 114.501 A 32.586 32.586 0 0 1 13.133 109.472 A 63.1 63.1 0 0 0 13.5 106.901 C 15 94.501 17.9 82.401 22.2 70.601 C 22.56 69.702 23.081 69.126 23.91 68.728 A 4.727 4.727 0 0 1 24.2 68.601 C 31 66.201 37.8 64.101 44.8 62.401 L 46 62.101 A 0.541 0.541 0 0 1 46.212 62.139 C 46.389 62.213 46.465 62.396 46.49 62.663 A 2.585 2.585 0 0 1 46.5 62.901 L 46.5 63.701 C 45.6 75.601 44.7 87.601 44 100.301 A 637.15 637.15 0 0 1 43.878 104.664 A 298.59 298.59 0 0 0 43.7 113.701 C 43.7 116.701 43.8 119.701 44 122.801 A 12.138 12.138 0 0 0 44.528 125.813 A 5.675 5.675 0 0 0 44.6 126.001 A 2.432 2.432 0 0 0 45.002 126.765 C 45.257 127.083 45.597 127.301 46.032 127.418 A 2.922 2.922 0 0 0 46.5 127.501 L 46.7 127.501 A 2.05 2.05 0 0 0 48.205 126.784 A 4.376 4.376 0 0 0 48.6 126.301 A 12.208 12.208 0 0 0 49.401 123.517 A 11.042 11.042 0 0 0 49.5 122.701 A 2.231 2.231 0 0 0 49.408 122.034 C 49.27 121.592 48.97 121.284 48.487 121.154 A 1.937 1.937 0 0 0 48.2 121.101 C 47.2 121.001 46.9 120.501 46.9 119.701 Z M 121.3 70.301 L 120.9 70.201 A 12.414 12.414 0 0 0 120.74 70.202 C 120.521 70.205 120.344 70.22 120.1 70.301 C 118 70.701 116 71.501 114.1 72.201 A 44.529 44.529 0 0 1 113.697 72.354 C 112.093 72.952 108.556 74.201 108.1 74.201 L 108 74.001 L 108.4 72.201 A 22.895 22.895 0 0 0 108.988 69.451 A 18.785 18.785 0 0 0 109.2 66.701 A 26.928 26.928 0 0 0 109.19 65.772 A 7.442 7.442 0 0 0 109.1 64.801 A 6.856 6.856 0 0 0 107.94 61.832 A 5.794 5.794 0 0 0 103.1 59.401 L 102 59.501 C 99.8 59.701 97.7 60.501 95.8 61.401 C 90.8 64.001 86.4 67.501 82.3 71.301 C 76.8 76.401 72 82.201 67.4 88.201 C 67.1 88.501 66.8 88.701 66.7 88.701 A 0.324 0.324 0 0 1 66.446 88.558 C 66.293 88.361 66.2 87.977 66.2 87.501 A 10.563 10.563 0 0 1 66.242 86.628 C 66.503 83.527 67.909 78.083 68 77.901 C 72 62.001 77.8 46.101 86.4 32.101 C 86.5 31.801 86.6 31.501 86.9 31.401 A 4.006 4.006 0 0 0 87.178 31.794 C 87.612 32.332 88.09 32.601 88.5 32.601 A 0.583 0.583 0 0 0 88.955 32.384 C 89.041 32.288 89.12 32.161 89.2 32.001 A 20.838 20.838 0 0 0 90.898 26.979 A 11.279 11.279 0 0 0 91 26.201 L 91 25.901 A 1.247 1.247 0 0 0 90.554 24.961 A 2.21 2.21 0 0 0 90.2 24.701 A 0.91 0.91 0 0 0 89.9 24.614 A 2.409 2.409 0 0 0 89.6 24.601 A 1.523 1.523 0 0 0 88.536 24.967 A 1.265 1.265 0 0 0 88.5 25.001 C 88 25.401 87.6 25.901 87.2 26.401 C 83.8 30.601 81.3 35.401 79 40.201 C 71.9 54.901 66.3 70.201 64.2 86.501 A 22.846 22.846 0 0 0 63.911 89.571 A 25.28 25.28 0 0 0 63.9 90.301 L 63.9 91.101 A 3.711 3.711 0 0 0 64.111 92.022 C 64.268 92.412 64.531 92.725 65 92.901 L 65.5 93.001 A 1.602 1.602 0 0 0 65.989 92.927 C 66.346 92.814 66.648 92.582 67 92.301 L 68.6 90.501 A 329.712 329.712 0 0 0 70.978 87.379 A 164.116 164.116 0 0 1 75.8 81.201 C 80.8 74.901 86.4 69.201 93.3 64.801 C 95.6 63.301 98 62.101 100.8 61.601 A 22.363 22.363 0 0 1 101.7 61.464 A 7.259 7.259 0 0 1 102.6 61.401 A 4.89 4.89 0 0 1 104.439 61.72 C 105.851 62.29 106.646 63.624 106.852 65.723 A 11.406 11.406 0 0 1 106.9 66.501 L 106.9 67.001 C 106.9 69.501 106.2 71.901 105.4 74.301 A 3.356 3.356 0 0 1 104.814 75.495 C 104.478 75.927 104.037 76.267 103.507 76.546 A 5.812 5.812 0 0 1 103.4 76.601 C 99.1 78.601 95 81.001 91 83.501 C 87.7 85.701 84.5 88.101 81.9 91.201 C 80.2 93.201 78.9 95.401 78.4 98.001 C 78.3 98.701 78.2 99.401 78.2 100.001 A 5.168 5.168 0 0 0 78.694 102.376 C 78.927 102.834 79.254 103.257 79.701 103.64 A 4.943 4.943 0 0 0 79.9 103.801 A 3.977 3.977 0 0 0 80.824 104.326 A 4.189 4.189 0 0 0 82.4 104.601 C 83.5 104.601 84.7 104.201 85.8 103.601 C 88 102.501 89.9 101.001 91.6 99.201 C 97.8 93.101 102.5 86.001 106.2 78.201 C 106.423 77.756 106.645 77.421 106.868 77.114 A 24.763 24.763 0 0 1 107.1 76.801 A 0.931 0.931 0 0 1 107.268 76.682 C 108.173 76.143 111.904 74.702 112.49 74.504 A 2.986 2.986 0 0 1 112.5 74.501 C 115.1 73.401 117.7 72.301 120.3 71.101 C 120.7 70.901 121.2 70.901 121.3 70.301 Z M 782.1 71.501 L 782 71.101 A 0.646 0.646 0 0 0 781.763 70.797 C 781.597 70.674 781.38 70.601 781.2 70.601 L 780.8 70.701 A 3.669 3.669 0 0 0 780.163 71.161 C 777.762 73.162 770.316 80.892 765.534 86.204 A 172.173 172.173 0 0 0 764.2 87.701 A 585.241 585.241 0 0 0 761.517 90.789 C 756.879 96.167 752.24 101.725 749.655 104.979 A 136.409 136.409 0 0 0 749.4 105.301 C 749.3 105.101 749.3 104.901 749.3 104.701 A 2.146 2.146 0 0 1 749.36 104.21 C 749.427 103.922 749.535 103.662 749.6 103.401 L 752.7 93.201 C 753.5 90.468 754.322 87.746 755.126 85.023 A 199.57 199.57 0 0 0 759.4 68.601 A 14.202 14.202 0 0 0 759.79 66.183 A 7.732 7.732 0 0 0 759.8 65.801 A 9.608 9.608 0 0 0 759.788 65.201 A 3.309 3.309 0 0 0 759.7 64.601 A 3.452 3.452 0 0 0 759.235 63.627 A 2.302 2.302 0 0 0 757.3 62.601 C 756.9 62.601 756.5 62.701 756.1 62.901 C 755.2 63.301 754.5 63.901 753.8 64.601 C 750.8 67.701 747.7 71.001 744.6 74.101 C 741.1 77.701 737.5 81.201 733.3 84.001 A 2.041 2.041 0 0 1 733.239 84.06 C 733.029 84.252 732.689 84.495 732.506 84.501 A 0.208 0.208 0 0 1 732.5 84.501 L 732.3 84.401 A 0.53 0.53 0 0 1 732.073 84.185 A 0.581 0.581 0 0 1 732 83.901 L 732.1 83.201 C 732.6 80.301 733.4 77.501 734.4 74.701 A 31.581 31.581 0 0 0 734.463 74.464 C 734.735 73.436 735.007 72.401 736.4 72.401 A 0.274 0.274 0 0 0 736.486 72.386 C 736.678 72.322 736.914 72.074 737 71.901 C 737.8 70.501 738.3 69.101 738.3 67.501 L 738.3 66.801 A 2.646 2.646 0 0 0 737.976 65.971 C 737.736 65.586 737.388 65.309 736.912 65.158 A 2.496 2.496 0 0 0 736.7 65.101 L 736.1 65.001 A 2.055 2.055 0 0 0 734.716 65.591 A 3.236 3.236 0 0 0 734.6 65.701 C 734 66.301 733.6 67.101 733.2 67.901 C 731.2 72.201 729.8 76.601 728.8 81.101 C 728.6 82.101 728.4 83.101 728.4 84.101 L 728.5 85.301 C 728.7 87.301 729.9 88.501 731.6 88.501 C 732 88.501 732.4 88.401 732.8 88.301 A 5.282 5.282 0 0 0 734.095 87.828 A 8.225 8.225 0 0 0 735.1 87.201 C 736.9 86.101 738.5 84.701 740.1 83.301 C 745.2 78.701 749.7 73.601 754.5 68.801 C 754.821 68.48 755.077 68.031 755.528 67.762 A 1.557 1.557 0 0 1 755.9 67.601 A 11.492 11.492 0 0 0 755.857 67.943 C 755.794 68.498 755.767 68.984 755.6 69.401 C 752.9 81.801 749.5 94.101 746 106.401 C 744.9 110.001 743.8 113.501 741.7 116.701 L 737.5 123.501 C 734.9 127.801 732.5 132.301 731 137.101 A 24.697 24.697 0 0 0 730.426 139.029 C 730.404 139.12 730.383 139.211 730.363 139.301 A 9.989 9.989 0 0 0 730.1 141.501 C 730.1 142.501 730.4 143.401 731.4 143.701 L 731.9 143.801 C 735.1 143.801 738.4 133.201 739.4 130.901 C 741.3 126.401 743 121.901 744.7 117.401 C 746.2 113.601 748.4 110.101 750.6 106.701 C 753.5 103.101 759.8 95.501 765.6 88.901 A 175.226 175.226 0 0 1 766.904 87.429 C 772.034 81.698 780.427 72.931 781.569 72.317 A 0.525 0.525 0 0 1 781.6 72.301 A 0.646 0.646 0 0 0 781.905 72.064 C 782.028 71.898 782.1 71.682 782.1 71.501 Z M 265.7 124.601 L 265.5 122.901 A 30.007 30.007 0 0 1 265.367 121.556 C 265.287 120.534 265.226 119.32 265.172 117.954 A 369.738 369.738 0 0 1 265.1 116.001 A 231.92 231.92 0 0 1 265.158 111.035 C 265.29 104.941 265.635 97.631 266.1 90.501 L 266.8 90.201 A 532.328 532.328 0 0 1 269.332 88.511 C 276.137 83.994 287.464 76.64 293 73.301 A 33.242 33.242 0 0 0 295.57 71.723 A 689.905 689.905 0 0 0 296.8 70.901 A 1.415 1.415 0 0 1 296.879 70.865 C 297.043 70.796 297.265 70.721 297.357 70.609 A 0.168 0.168 0 0 0 297.4 70.501 L 297.3 70.301 A 0.644 0.644 0 0 0 297.258 70.228 C 297.218 70.169 297.178 70.138 297.138 70.121 A 0.339 0.339 0 0 0 297 70.101 L 296.5 70.201 A 2.602 2.602 0 0 0 295.669 70.344 C 295.236 70.487 294.838 70.714 294.4 70.901 C 288.453 73.779 275.699 81.532 269.372 85.337 A 831.823 831.823 0 0 1 268.6 85.801 C 268.034 86.178 267.29 86.467 266.536 86.834 A 14.536 14.536 0 0 0 266.4 86.901 C 266.494 86.245 266.588 85.501 266.599 84.834 A 7.784 7.784 0 0 0 266.6 84.701 C 270.8 76.201 276.2 68.801 282.6 62.001 C 282.333 62.734 281.978 63.423 281.622 64.127 A 28.869 28.869 0 0 0 281.1 65.201 A 2.889 2.889 0 0 0 280.857 65.876 A 2.45 2.45 0 0 0 280.8 66.401 C 280.8 67.101 281 67.701 281.5 68.201 C 281.763 68.464 282.025 68.573 282.288 68.596 A 1.275 1.275 0 0 0 282.4 68.601 A 1.514 1.514 0 0 0 282.888 68.548 A 0.839 0.839 0 0 0 283 68.501 A 1.631 1.631 0 0 0 283.721 67.821 A 0.735 0.735 0 0 0 283.8 67.501 L 283.7 66.701 C 283.7 66.034 284.047 65.507 284.394 64.944 A 11.785 11.785 0 0 0 284.6 64.601 L 286.9 60.901 A 7.272 7.272 0 0 0 287.398 59.748 A 2.289 2.289 0 0 0 287.5 59.101 A 2.044 2.044 0 0 0 287.051 57.785 A 3.012 3.012 0 0 0 286.8 57.501 C 286.5 57.101 286 56.901 285.4 56.901 A 2.591 2.591 0 0 0 284.893 56.957 C 284.473 57.042 283.987 57.223 283.5 57.501 C 282.6 58.001 281.8 58.601 281.1 59.301 C 279.9 60.401 278.8 61.701 277.7 63.001 C 274.3 67.301 271.4 71.901 268.6 76.701 A 2.911 2.911 0 0 1 268.488 76.905 C 268.331 77.166 268.185 77.298 268.103 77.301 A 0.077 0.077 0 0 1 268.1 77.301 A 0.162 0.162 0 0 1 267.967 77.208 C 267.856 77.028 267.8 76.6 267.8 76.005 A 8.675 8.675 0 0 1 267.8 76.001 A 26.808 26.808 0 0 1 267.875 74.209 C 268.355 67.286 271.019 51.134 271.963 46.865 A 28.747 28.747 0 0 1 272 46.701 A 225.352 225.352 0 0 1 274.756 35.805 A 508.43 508.43 0 0 0 276.2 30.401 L 276.3 29.501 C 276.3 29.002 276.162 28.572 275.712 28.269 A 1.882 1.882 0 0 0 275.4 28.101 L 274.7 27.901 A 1.19 1.19 0 0 0 273.952 28.21 C 273.706 28.411 273.483 28.69 273.284 28.977 A 8.34 8.34 0 0 0 273.2 29.101 L 269 35.401 C 268.4 36.401 267.8 37.301 267.3 38.301 A 1.952 1.952 0 0 0 267.1 38.681 A 1.438 1.438 0 0 0 267 39.201 A 1.247 1.247 0 0 0 267.446 40.141 A 2.21 2.21 0 0 0 267.8 40.401 A 2.424 2.424 0 0 0 268.184 40.567 A 0.763 0.763 0 0 0 268.4 40.601 A 1.067 1.067 0 0 0 269.086 40.327 C 269.299 40.152 269.5 39.902 269.7 39.601 C 270.025 39.195 270.218 38.723 270.601 38.292 A 2.772 2.772 0 0 1 270.9 38.001 L 271 38.401 A 2.053 2.053 0 0 1 270.991 38.597 C 270.965 38.875 270.882 39.054 270.8 39.301 C 267.7 53.601 266.3 68.501 264.9 83.101 A 22.396 22.396 0 0 1 264.238 84.451 A 71.908 71.908 0 0 1 263.5 85.801 A 31.739 31.739 0 0 1 263.188 86.403 A 7.737 7.737 0 0 0 262.4 88.301 L 262.4 88.701 A 2.318 2.318 0 0 0 262.622 89.737 C 262.896 90.289 263.422 90.671 264.2 90.801 L 264.3 90.801 C 263.7 99.901 263.3 109.301 263.3 116.001 A 390.86 390.86 0 0 0 263.377 118.153 C 263.456 120.201 263.55 121.926 263.7 123.201 A 11.63 11.63 0 0 0 263.922 124.367 C 264.264 125.739 264.823 126.501 265.7 126.501 L 265.8 126.501 C 265.996 126.501 266.288 126.309 266.488 126.207 A 1.806 1.806 0 0 1 266.5 126.201 C 266.673 126.028 266.771 125.855 266.795 125.617 A 1.189 1.189 0 0 0 266.8 125.501 A 0.814 0.814 0 0 0 266.751 125.239 C 266.713 125.126 266.656 125.014 266.6 124.901 A 3.099 3.099 0 0 0 266.467 124.735 C 266.267 124.504 266.122 124.421 266.033 124.404 A 0.184 0.184 0 0 0 266 124.401 A 0.288 0.288 0 0 0 265.918 124.413 C 265.786 124.452 265.714 124.576 265.702 124.598 A 0.131 0.131 0 0 0 265.7 124.601 Z M 134.8 76.501 L 135.2 77.601 C 135.905 79.364 136.818 80.575 137.978 81.273 A 5.349 5.349 0 0 0 140.8 82.001 A 8.273 8.273 0 0 0 142.226 81.882 C 142.523 81.83 142.834 81.761 143.166 81.669 A 11.666 11.666 0 0 0 143.4 81.601 L 144.8 81.201 C 150 79.201 155 76.601 160 73.901 L 161.1 73.201 C 161.667 72.715 161.972 72.294 162.067 71.833 A 1.636 1.636 0 0 0 162.1 71.501 C 162.1 71.257 162.034 71.014 161.902 70.77 A 2.154 2.154 0 0 0 161.8 70.601 A 2.03 2.03 0 0 0 161.46 70.204 A 1.66 1.66 0 0 0 160.3 69.801 A 2.554 2.554 0 0 0 159.381 69.977 A 3.136 3.136 0 0 0 159.1 70.101 L 153.6 72.801 A 623.748 623.748 0 0 0 151.749 73.607 A 89.801 89.801 0 0 1 142.3 77.301 C 141.8 77.501 141.3 77.501 141 77.501 C 140.205 77.501 139.904 77.106 139.409 75.922 A 20.247 20.247 0 0 1 139.4 75.901 L 138 72.801 A 4.993 4.993 0 0 0 136.816 71.362 A 4.345 4.345 0 0 0 134 70.401 C 133.512 70.401 133.023 70.401 132.442 70.587 A 3.777 3.777 0 0 0 132.4 70.601 A 10.422 10.422 0 0 0 129.363 72.05 A 41.969 41.969 0 0 0 128.4 72.701 C 125.6 74.801 123.2 77.301 120.8 80.001 A 5.336 5.336 0 0 0 120.791 80.01 C 120.322 80.481 120.031 80.95 119.917 80.997 A 0.045 0.045 0 0 1 119.9 81.001 L 120.3 79.701 C 127.3 58.201 132.2 43.301 143.2 23.501 A 65.395 65.395 0 0 0 144.159 21.723 A 22.931 22.931 0 0 0 145.7 18.101 A 8.068 8.068 0 0 1 145.846 17.502 C 146.007 16.926 146.199 16.428 146.271 16.01 A 1.832 1.832 0 0 0 146.3 15.701 A 0.928 0.928 0 0 0 146.159 15.19 C 146.059 15.034 145.906 14.904 145.7 14.801 A 2.889 2.889 0 0 0 145.025 14.559 A 2.45 2.45 0 0 0 144.5 14.501 A 2.56 2.56 0 0 0 143.563 14.684 C 143.075 14.875 142.588 15.214 142.1 15.701 C 140.8 17.001 139.9 18.601 139 20.101 C 135.5 26.101 132.8 32.401 130.5 38.801 A 420.21 420.21 0 0 0 128.139 45.417 C 126.092 51.304 124.437 56.454 123.601 59.228 A 103.92 103.92 0 0 0 123.4 59.901 A 1659.691 1659.691 0 0 1 120.163 69.623 A 830.063 830.063 0 0 1 113.4 89.001 A 45.849 45.849 0 0 0 113.195 89.625 C 113.02 90.179 112.909 90.616 112.901 91.048 A 2.722 2.722 0 0 0 112.9 91.101 A 2.302 2.302 0 0 0 112.973 91.709 C 113.075 92.08 113.283 92.371 113.619 92.619 A 2.837 2.837 0 0 0 113.9 92.801 C 114.141 92.962 114.448 93.058 114.714 93.09 A 1.595 1.595 0 0 0 114.9 93.101 A 1.937 1.937 0 0 0 115.776 92.874 C 116.333 92.593 116.916 92.044 117.5 91.201 C 119.4 88.501 121.4 85.801 123.6 83.401 C 126.1 80.501 128.7 77.701 132 75.601 C 132.51 75.237 132.913 75.032 133.249 74.948 A 1.434 1.434 0 0 1 133.6 74.901 A 0.605 0.605 0 0 1 134.076 75.127 C 134.297 75.372 134.491 75.822 134.8 76.501 Z M 213.2 76.501 L 213.6 77.601 C 214.305 79.364 215.218 80.575 216.378 81.273 A 5.349 5.349 0 0 0 219.2 82.001 A 8.273 8.273 0 0 0 220.626 81.882 C 220.923 81.83 221.234 81.761 221.566 81.669 A 11.666 11.666 0 0 0 221.8 81.601 L 223.2 81.201 C 228.4 79.201 233.4 76.601 238.4 73.901 L 239.5 73.201 C 240.067 72.715 240.372 72.294 240.467 71.833 A 1.636 1.636 0 0 0 240.5 71.501 C 240.5 71.257 240.434 71.014 240.302 70.77 A 2.154 2.154 0 0 0 240.2 70.601 A 2.03 2.03 0 0 0 239.86 70.204 A 1.66 1.66 0 0 0 238.7 69.801 A 2.554 2.554 0 0 0 237.781 69.977 A 3.136 3.136 0 0 0 237.5 70.101 L 232 72.801 A 623.748 623.748 0 0 0 230.149 73.607 A 89.801 89.801 0 0 1 220.7 77.301 C 220.2 77.501 219.7 77.501 219.4 77.501 C 218.605 77.501 218.304 77.106 217.809 75.922 A 20.247 20.247 0 0 1 217.8 75.901 L 216.4 72.801 A 4.993 4.993 0 0 0 215.216 71.362 A 4.345 4.345 0 0 0 212.4 70.401 C 211.912 70.401 211.423 70.401 210.842 70.587 A 3.777 3.777 0 0 0 210.8 70.601 A 10.422 10.422 0 0 0 207.763 72.05 A 41.969 41.969 0 0 0 206.8 72.701 C 204 74.801 201.6 77.301 199.2 80.001 A 5.336 5.336 0 0 0 199.191 80.01 C 198.722 80.481 198.431 80.95 198.317 80.997 A 0.045 0.045 0 0 1 198.3 81.001 L 198.7 79.701 C 205.7 58.201 210.6 43.301 221.6 23.501 A 65.395 65.395 0 0 0 222.559 21.723 A 22.931 22.931 0 0 0 224.1 18.101 A 8.068 8.068 0 0 1 224.246 17.502 C 224.407 16.926 224.599 16.428 224.671 16.01 A 1.832 1.832 0 0 0 224.7 15.701 A 0.928 0.928 0 0 0 224.559 15.19 C 224.459 15.034 224.306 14.904 224.1 14.801 A 2.889 2.889 0 0 0 223.425 14.559 A 2.45 2.45 0 0 0 222.9 14.501 A 2.56 2.56 0 0 0 221.963 14.684 C 221.475 14.875 220.988 15.214 220.5 15.701 C 219.2 17.001 218.3 18.601 217.4 20.101 C 213.9 26.101 211.2 32.401 208.9 38.801 A 420.21 420.21 0 0 0 206.539 45.417 C 204.492 51.304 202.837 56.454 202.001 59.228 A 103.92 103.92 0 0 0 201.8 59.901 A 1659.691 1659.691 0 0 1 198.563 69.623 A 830.063 830.063 0 0 1 191.8 89.001 A 45.849 45.849 0 0 0 191.595 89.625 C 191.42 90.179 191.309 90.616 191.301 91.048 A 2.722 2.722 0 0 0 191.3 91.101 A 2.302 2.302 0 0 0 191.373 91.709 C 191.475 92.08 191.683 92.371 192.019 92.619 A 2.837 2.837 0 0 0 192.3 92.801 C 192.541 92.962 192.848 93.058 193.114 93.09 A 1.595 1.595 0 0 0 193.3 93.101 A 1.937 1.937 0 0 0 194.176 92.874 C 194.733 92.593 195.316 92.044 195.9 91.201 C 197.8 88.501 199.8 85.801 202 83.401 C 204.5 80.501 207.1 77.701 210.4 75.601 C 210.91 75.237 211.313 75.032 211.649 74.948 A 1.434 1.434 0 0 1 212 74.901 A 0.605 0.605 0 0 1 212.476 75.127 C 212.697 75.372 212.891 75.822 213.2 76.501 Z M 549.3 76.501 L 549.7 77.601 C 550.405 79.364 551.318 80.575 552.478 81.273 A 5.349 5.349 0 0 0 555.3 82.001 A 8.273 8.273 0 0 0 556.726 81.882 C 557.023 81.83 557.334 81.761 557.666 81.669 A 11.666 11.666 0 0 0 557.9 81.601 L 559.3 81.201 C 564.5 79.201 569.5 76.601 574.5 73.901 L 575.6 73.201 C 576.167 72.715 576.472 72.294 576.567 71.833 A 1.636 1.636 0 0 0 576.6 71.501 C 576.6 71.257 576.534 71.014 576.402 70.77 A 2.154 2.154 0 0 0 576.3 70.601 A 2.03 2.03 0 0 0 575.96 70.204 A 1.66 1.66 0 0 0 574.8 69.801 A 2.554 2.554 0 0 0 573.881 69.977 A 3.136 3.136 0 0 0 573.6 70.101 L 568.1 72.801 A 623.748 623.748 0 0 0 566.249 73.607 A 89.801 89.801 0 0 1 556.8 77.301 C 556.3 77.501 555.8 77.501 555.5 77.501 C 554.705 77.501 554.404 77.106 553.909 75.922 A 20.247 20.247 0 0 1 553.9 75.901 L 552.5 72.801 A 4.993 4.993 0 0 0 551.316 71.362 A 4.345 4.345 0 0 0 548.5 70.401 C 548.012 70.401 547.523 70.401 546.942 70.587 A 3.777 3.777 0 0 0 546.9 70.601 A 10.422 10.422 0 0 0 543.863 72.05 A 41.969 41.969 0 0 0 542.9 72.701 C 540.1 74.801 537.7 77.301 535.3 80.001 A 5.336 5.336 0 0 0 535.291 80.01 C 534.822 80.481 534.531 80.95 534.417 80.997 A 0.045 0.045 0 0 1 534.4 81.001 L 534.8 79.701 C 541.8 58.201 546.7 43.301 557.7 23.501 A 65.395 65.395 0 0 0 558.659 21.723 A 22.931 22.931 0 0 0 560.2 18.101 A 8.068 8.068 0 0 1 560.346 17.502 C 560.507 16.926 560.699 16.428 560.771 16.01 A 1.832 1.832 0 0 0 560.8 15.701 A 0.928 0.928 0 0 0 560.659 15.19 C 560.559 15.034 560.406 14.904 560.2 14.801 A 2.889 2.889 0 0 0 559.525 14.559 A 2.45 2.45 0 0 0 559 14.501 A 2.56 2.56 0 0 0 558.063 14.684 C 557.575 14.875 557.088 15.214 556.6 15.701 C 555.3 17.001 554.4 18.601 553.5 20.101 C 550 26.101 547.3 32.401 545 38.801 A 420.21 420.21 0 0 0 542.639 45.417 C 540.592 51.304 538.937 56.454 538.101 59.228 A 103.92 103.92 0 0 0 537.9 59.901 A 1659.691 1659.691 0 0 1 534.663 69.623 A 830.063 830.063 0 0 1 527.9 89.001 A 45.849 45.849 0 0 0 527.695 89.625 C 527.52 90.179 527.409 90.616 527.401 91.048 A 2.722 2.722 0 0 0 527.4 91.101 A 2.302 2.302 0 0 0 527.473 91.709 C 527.575 92.08 527.783 92.371 528.119 92.619 A 2.837 2.837 0 0 0 528.4 92.801 C 528.641 92.962 528.948 93.058 529.214 93.09 A 1.595 1.595 0 0 0 529.4 93.101 A 1.937 1.937 0 0 0 530.276 92.874 C 530.833 92.593 531.416 92.044 532 91.201 C 533.9 88.501 535.9 85.801 538.1 83.401 C 540.6 80.501 543.2 77.701 546.5 75.601 C 547.01 75.237 547.413 75.032 547.749 74.948 A 1.434 1.434 0 0 1 548.1 74.901 A 0.605 0.605 0 0 1 548.576 75.127 C 548.797 75.372 548.991 75.822 549.3 76.501 Z M 182.3 69.601 L 182.1 69.501 A 0.494 0.494 0 0 0 181.879 69.562 C 181.43 69.79 180.895 70.606 180.548 71.129 A 46.41 46.41 0 0 1 180.5 71.201 A 47.833 47.833 0 0 0 179.81 72.185 C 177.395 75.709 172.526 83.404 170.452 86.348 A 33.569 33.569 0 0 1 170.2 86.701 C 168.7 88.901 167.1 90.901 165.1 92.601 C 164.504 93.131 163.908 93.705 163.224 94.032 A 2.574 2.574 0 0 1 162.1 94.301 A 12.414 12.414 0 0 1 161.94 94.3 C 161.721 94.298 161.544 94.282 161.3 94.201 A 2.31 2.31 0 0 1 160.067 93.247 C 159.654 92.619 159.475 91.798 159.353 90.978 A 25.217 25.217 0 0 1 159.3 90.601 C 159.1 89.101 159 87.501 159 86.001 C 159 80.601 160.2 75.301 162.7 70.201 C 162.999 69.703 163.298 69.304 164.093 69.301 A 2.364 2.364 0 0 1 164.1 69.301 L 164.3 69.301 A 1.034 1.034 0 0 0 165.247 68.589 A 1.239 1.239 0 0 0 165.3 68.401 L 165.3 67.801 A 3.671 3.671 0 0 0 165.221 66.983 C 165.115 66.522 164.886 66.147 164.444 65.88 A 2.092 2.092 0 0 0 164.3 65.801 A 1.952 1.952 0 0 0 163.92 65.601 A 1.438 1.438 0 0 0 163.4 65.501 A 1.675 1.675 0 0 0 162.283 65.99 A 3.479 3.479 0 0 0 161.9 66.401 C 160.8 67.701 160 69.201 159.4 70.701 C 157.5 75.501 156.8 80.401 156.8 85.501 C 156.8 87.401 156.9 89.301 157.2 91.101 A 14.278 14.278 0 0 0 157.588 92.998 A 25.023 25.023 0 0 0 157.7 93.401 C 158.21 94.817 158.912 95.848 159.789 96.476 A 3.877 3.877 0 0 0 162.1 97.201 A 4.685 4.685 0 0 0 163.556 96.95 C 164.127 96.762 164.713 96.474 165.3 96.101 C 167 95.001 168.3 93.601 169.4 92.001 C 172.7 87.901 179.3 76.601 181.8 71.901 A 2.528 2.528 0 0 1 181.929 71.594 C 182.183 71.073 182.6 70.518 182.6 70.101 C 182.6 69.901 182.5 69.701 182.3 69.601 Z M 733.8 69.601 L 733.6 69.501 A 0.494 0.494 0 0 0 733.379 69.562 C 732.93 69.79 732.395 70.606 732.048 71.129 A 46.41 46.41 0 0 1 732 71.201 A 47.833 47.833 0 0 0 731.31 72.185 C 728.895 75.709 724.026 83.404 721.952 86.348 A 33.569 33.569 0 0 1 721.7 86.701 C 720.2 88.901 718.6 90.901 716.6 92.601 C 716.004 93.131 715.408 93.705 714.724 94.032 A 2.574 2.574 0 0 1 713.6 94.301 A 12.414 12.414 0 0 1 713.44 94.3 C 713.221 94.298 713.044 94.282 712.8 94.201 A 2.31 2.31 0 0 1 711.567 93.247 C 711.154 92.619 710.975 91.798 710.853 90.978 A 25.217 25.217 0 0 1 710.8 90.601 C 710.6 89.101 710.5 87.501 710.5 86.001 C 710.5 80.601 711.7 75.301 714.2 70.201 C 714.499 69.703 714.798 69.304 715.593 69.301 A 2.364 2.364 0 0 1 715.6 69.301 L 715.8 69.301 A 1.034 1.034 0 0 0 716.747 68.589 A 1.239 1.239 0 0 0 716.8 68.401 L 716.8 67.801 A 3.671 3.671 0 0 0 716.721 66.983 C 716.615 66.522 716.386 66.147 715.944 65.88 A 2.092 2.092 0 0 0 715.8 65.801 A 1.952 1.952 0 0 0 715.42 65.601 A 1.438 1.438 0 0 0 714.9 65.501 A 1.675 1.675 0 0 0 713.783 65.99 A 3.479 3.479 0 0 0 713.4 66.401 C 712.3 67.701 711.5 69.201 710.9 70.701 C 709 75.501 708.3 80.401 708.3 85.501 C 708.3 87.401 708.4 89.301 708.7 91.101 A 14.278 14.278 0 0 0 709.088 92.998 A 25.023 25.023 0 0 0 709.2 93.401 C 709.71 94.817 710.412 95.848 711.289 96.476 A 3.877 3.877 0 0 0 713.6 97.201 A 4.685 4.685 0 0 0 715.056 96.95 C 715.627 96.762 716.213 96.474 716.8 96.101 C 718.5 95.001 719.8 93.601 720.9 92.001 C 724.2 87.901 730.8 76.601 733.3 71.901 A 2.528 2.528 0 0 1 733.429 71.594 C 733.683 71.073 734.1 70.518 734.1 70.101 C 734.1 69.901 734 69.701 733.8 69.601 Z M 198.7 70.201 L 197.3 71.201 C 194.1 73.801 191.4 76.901 188.9 80.201 L 186.1 84.001 C 185.5 82.801 185.2 81.701 184.6 80.701 C 183.6 78.901 183.2 77.301 183.2 75.701 C 183.2 73.101 184.3 70.601 186 68.201 C 186.19 67.917 186.379 67.632 186.74 67.603 A 0.762 0.762 0 0 1 186.8 67.601 L 187.3 67.601 C 188.051 67.601 188.594 67.322 188.927 66.707 A 2.534 2.534 0 0 0 189.1 66.301 L 189.3 65.301 A 2.197 2.197 0 0 0 188.635 63.718 A 3.119 3.119 0 0 0 188.4 63.501 C 188 63.201 187.5 63.001 187.1 63.001 A 1.888 1.888 0 0 0 186.4 63.139 C 186.273 63.188 186.147 63.249 186.016 63.32 A 8.066 8.066 0 0 0 185.7 63.501 A 2.667 2.667 0 0 0 185.303 63.754 C 185.035 63.955 184.768 64.2 184.5 64.401 C 181.4 67.501 179.7 71.501 179.7 75.701 A 16.366 16.366 0 0 0 179.946 78.539 C 180.165 79.775 180.538 81.02 181.1 82.201 C 181.8 83.701 182.4 85.201 182.7 86.901 C 182.787 87.248 182.798 87.52 182.8 87.847 A 33.302 33.302 0 0 1 182.8 88.001 A 3.935 3.935 0 0 1 182.638 89.151 C 182.574 89.362 182.491 89.573 182.386 89.788 A 5.602 5.602 0 0 1 182.1 90.301 C 180.6 92.901 179.1 95.501 178 98.301 C 177.5 99.501 177.2 100.801 177.2 102.101 A 2.855 2.855 0 0 0 177.421 103.252 C 177.598 103.657 177.883 104.001 178.29 104.273 A 2.977 2.977 0 0 0 178.5 104.401 C 178.744 104.564 179.054 104.594 179.322 104.6 A 8.27 8.27 0 0 0 179.5 104.601 A 2.171 2.171 0 0 0 180.428 104.376 C 180.655 104.269 180.882 104.126 181.109 103.953 A 5.504 5.504 0 0 0 181.3 103.801 A 7.43 7.43 0 0 0 182.549 102.39 A 10.514 10.514 0 0 0 183.1 101.501 C 185.1 98.001 186.4 94.201 186.6 90.101 C 186.7 89.301 186.8 88.601 187.2 87.901 C 189 85.001 190.9 82.101 192.9 79.401 C 195 76.601 197.2 74.001 199.8 71.601 A 3.647 3.647 0 0 1 199.802 71.598 C 200 71.302 200.197 71.103 200.2 70.808 A 0.674 0.674 0 0 0 200.2 70.801 A 2.831 2.831 0 0 0 200.199 70.706 C 200.194 70.575 200.17 70.483 200.037 70.339 A 1.465 1.465 0 0 0 200 70.301 A 1.389 1.389 0 0 0 199.873 70.137 C 199.755 70.007 199.637 69.939 199.519 69.914 A 0.557 0.557 0 0 0 199.4 69.901 C 199.119 69.901 198.926 69.989 198.739 70.164 A 1.568 1.568 0 0 0 198.7 70.201 Z M 711.5 70.201 L 710.1 71.201 C 706.9 73.801 704.2 76.901 701.7 80.201 L 698.9 84.001 C 698.3 82.801 698 81.701 697.4 80.701 C 696.4 78.901 696 77.301 696 75.701 C 696 73.101 697.1 70.601 698.8 68.201 C 698.99 67.917 699.179 67.632 699.54 67.603 A 0.762 0.762 0 0 1 699.6 67.601 L 700.1 67.601 C 700.851 67.601 701.394 67.322 701.727 66.707 A 2.534 2.534 0 0 0 701.9 66.301 L 702.1 65.301 A 2.197 2.197 0 0 0 701.435 63.718 A 3.119 3.119 0 0 0 701.2 63.501 C 700.8 63.201 700.3 63.001 699.9 63.001 A 1.888 1.888 0 0 0 699.2 63.139 C 699.073 63.188 698.947 63.249 698.816 63.32 A 8.066 8.066 0 0 0 698.5 63.501 A 2.667 2.667 0 0 0 698.103 63.754 C 697.835 63.955 697.568 64.2 697.3 64.401 C 694.2 67.501 692.5 71.501 692.5 75.701 A 16.366 16.366 0 0 0 692.746 78.539 C 692.965 79.775 693.338 81.02 693.9 82.201 C 694.6 83.701 695.2 85.201 695.5 86.901 C 695.587 87.248 695.598 87.52 695.6 87.847 A 33.302 33.302 0 0 1 695.6 88.001 A 3.935 3.935 0 0 1 695.438 89.151 C 695.374 89.362 695.291 89.573 695.186 89.788 A 5.602 5.602 0 0 1 694.9 90.301 C 693.4 92.901 691.9 95.501 690.8 98.301 C 690.3 99.501 690 100.801 690 102.101 A 2.855 2.855 0 0 0 690.221 103.252 C 690.398 103.657 690.683 104.001 691.09 104.273 A 2.977 2.977 0 0 0 691.3 104.401 C 691.544 104.564 691.854 104.594 692.122 104.6 A 8.27 8.27 0 0 0 692.3 104.601 A 2.171 2.171 0 0 0 693.228 104.376 C 693.455 104.269 693.682 104.126 693.909 103.953 A 5.504 5.504 0 0 0 694.1 103.801 A 7.43 7.43 0 0 0 695.349 102.39 A 10.514 10.514 0 0 0 695.9 101.501 C 697.9 98.001 699.2 94.201 699.4 90.101 C 699.5 89.301 699.6 88.601 700 87.901 C 701.8 85.001 703.7 82.101 705.7 79.401 C 707.8 76.601 710 74.001 712.6 71.601 A 3.647 3.647 0 0 1 712.602 71.598 C 712.8 71.302 712.997 71.103 713 70.808 A 0.674 0.674 0 0 0 713 70.801 A 2.831 2.831 0 0 0 712.999 70.706 C 712.994 70.575 712.97 70.483 712.837 70.339 A 1.465 1.465 0 0 0 712.8 70.301 A 1.389 1.389 0 0 0 712.673 70.137 C 712.555 70.007 712.437 69.939 712.319 69.914 A 0.557 0.557 0 0 0 712.2 69.901 C 711.919 69.901 711.726 69.989 711.539 70.164 A 1.568 1.568 0 0 0 711.5 70.201 Z M 267.3 72.501 L 267.1 72.101 A 0.878 0.878 0 0 0 266.868 71.863 A 0.984 0.984 0 0 0 266.3 71.701 A 0.922 0.922 0 0 0 265.953 71.782 A 3.84 3.84 0 0 0 265.7 71.901 L 265 72.401 C 259.3 76.901 253.1 80.601 246.2 83.101 C 244.5 83.801 242.7 84.301 240.8 84.401 A 5.118 5.118 0 0 1 239.715 84.299 C 238.467 84.027 237.88 83.195 237.8 81.601 C 237.8 79.301 238.5 77.301 239.3 75.201 C 239.493 75.008 239.593 74.723 239.868 74.702 A 0.43 0.43 0 0 1 239.9 74.701 L 241 74.801 C 242.7 74.801 244 73.701 245.4 72.901 C 246.8 72.101 248.1 71.001 248.8 69.501 A 9.413 9.413 0 0 0 249.09 68.751 C 249.193 68.439 249.263 68.141 249.289 67.848 A 2.815 2.815 0 0 0 249.3 67.601 A 2.914 2.914 0 0 0 248.89 66.159 A 3.905 3.905 0 0 0 248.5 65.601 A 3.89 3.89 0 0 0 247.713 64.782 A 3.515 3.515 0 0 0 245.5 64.101 L 244.8 64.101 C 243.5 64.301 242.4 64.901 241.5 65.801 C 237.1 70.201 234.8 75.601 234.8 81.701 L 234.8 82.101 C 234.8 85.601 237.1 87.601 240.5 87.601 L 240.7 87.601 C 242.3 87.601 243.8 87.201 245.3 86.701 C 250.2 85.001 254.7 82.501 259 79.601 C 261.8 77.701 264.4 75.601 266.8 73.201 C 266.941 73.06 267.133 72.918 267.233 72.742 A 0.482 0.482 0 0 0 267.3 72.501 Z M 667.5 71.101 L 667.3 70.301 A 1.616 1.616 0 0 0 667.189 70.11 C 667.144 70.044 667.098 69.991 667.049 69.948 A 0.633 0.633 0 0 0 666.6 69.801 C 665.4 69.801 664.9 70.401 663.5 71.001 C 660.175 72.489 657.539 72.904 654.386 72.985 A 54.243 54.243 0 0 1 653 73.001 A 4.51 4.51 0 0 1 649.739 71.496 A 16.36 16.36 0 0 1 648.3 69.801 A 7.313 7.313 0 0 0 647.484 68.834 C 647.166 68.521 646.841 68.273 646.512 68.09 A 2.881 2.881 0 0 0 645.1 67.701 A 3.584 3.584 0 0 0 643.857 67.906 C 642.388 68.441 641.476 70.007 639.8 72.401 C 640.041 70.713 640.024 69.025 640.839 67.544 A 5.107 5.107 0 0 1 641.6 66.501 C 642.2 65.901 642.6 65.301 642.6 64.601 L 642.4 63.801 C 641.996 62.75 641.526 62.156 640.621 61.968 A 3.535 3.535 0 0 0 639.9 61.901 C 639.266 61.98 638.758 62.499 638.276 63.158 A 15.351 15.351 0 0 0 637.9 63.701 A 17.004 17.004 0 0 0 636.811 66.679 A 105.839 105.839 0 0 0 636.4 68.201 C 634.913 73.903 633.971 78.513 633.351 84.061 A 124.327 124.327 0 0 0 633 87.701 A 1.97 1.97 0 0 0 633.167 88.117 C 633.377 88.496 633.693 88.678 634.115 88.699 A 1.703 1.703 0 0 0 634.2 88.701 A 1.54 1.54 0 0 0 634.647 88.631 C 634.746 88.601 634.85 88.562 634.961 88.514 A 5.062 5.062 0 0 0 635.2 88.401 A 5.215 5.215 0 0 0 635.952 87.091 A 22.255 22.255 0 0 0 636.3 86.201 C 637.1 84.201 637.8 82.101 638.6 80.001 A 76.142 76.142 0 0 0 638.805 79.516 C 639.553 77.737 640.301 75.92 642.621 73.641 A 22.191 22.191 0 0 1 643.3 73.001 A 2.112 2.112 0 0 1 643.55 72.727 C 643.863 72.437 644.27 72.201 644.5 72.201 A 0.432 0.432 0 0 1 644.679 72.245 C 644.837 72.318 645.026 72.485 645.218 72.772 A 3.046 3.046 0 0 1 645.3 72.901 A 66.162 66.162 0 0 0 645.783 73.289 C 647.715 74.823 649.646 76.101 652.6 76.101 A 1477.208 1477.208 0 0 0 653.217 76.071 C 658.319 75.818 660.628 75.641 664.812 73.607 A 46.482 46.482 0 0 0 666.2 72.901 A 5.014 5.014 0 0 0 666.814 72.46 C 667.051 72.256 667.234 72.039 667.351 71.791 A 1.585 1.585 0 0 0 667.5 71.101 Z M 580.3 76.201 L 580.3 78.501 L 580.5 80.501 C 580.971 82.575 582.153 83.76 583.963 83.889 A 4.736 4.736 0 0 0 584.3 83.901 L 585.2 83.801 A 11.364 11.364 0 0 0 588.022 83.031 C 588.449 82.857 588.876 82.661 589.313 82.445 A 26.695 26.695 0 0 0 589.4 82.401 C 593.4 80.401 596.9 77.701 600.3 74.801 A 28.197 28.197 0 0 0 602.722 72.623 A 56.161 56.161 0 0 1 603.9 71.501 C 604.163 71.239 604.272 70.976 604.295 70.714 A 1.275 1.275 0 0 0 604.3 70.601 A 0.946 0.946 0 0 0 604.064 69.94 A 0.911 0.911 0 0 0 603.9 69.801 A 1.074 1.074 0 0 0 603.296 69.516 A 1.338 1.338 0 0 0 603.1 69.501 A 0.873 0.873 0 0 0 602.91 69.525 C 602.755 69.56 602.571 69.634 602.384 69.748 A 2.312 2.312 0 0 0 602.3 69.801 A 2.388 2.388 0 0 1 601.612 70.426 A 22.485 22.485 0 0 1 601.5 70.501 C 598.6 73.001 595.6 75.401 592.3 77.401 C 590.2 78.701 588.1 79.901 585.7 80.501 L 584.5 80.701 A 1.123 1.123 0 0 1 584.057 80.625 C 583.677 80.463 583.536 80.028 583.506 79.193 A 11.018 11.018 0 0 1 583.5 78.801 A 61.124 61.124 0 0 1 583.563 76.201 A 163.701 163.701 0 0 1 583.7 73.601 L 583.7 73.201 C 583.7 72.422 583.55 71.792 582.926 71.378 A 2.21 2.21 0 0 0 582.6 71.201 A 0.859 0.859 0 0 1 582.421 71.084 C 582.345 71.019 582.295 70.947 582.262 70.87 A 1.179 1.179 0 0 1 582.2 70.401 A 5.35 5.35 0 0 0 582.032 69.269 C 581.694 68.024 580.884 67.401 579.7 67.401 C 579.3 67.401 578.8 67.501 578.3 67.601 C 574.012 68.852 567.41 77.683 566.05 83.118 A 7.468 7.468 0 0 0 565.8 84.901 A 3.725 3.725 0 0 0 565.873 85.674 A 1.889 1.889 0 0 0 566.8 87.001 A 3.436 3.436 0 0 0 567.19 87.204 C 567.344 87.272 567.49 87.319 567.631 87.351 A 2.141 2.141 0 0 0 568.1 87.401 A 3.218 3.218 0 0 0 569.778 86.827 C 570.025 86.673 570.264 86.501 570.495 86.329 A 77.599 77.599 0 0 0 570.8 86.101 C 572.9 84.501 574.7 82.501 576.4 80.601 C 577.7 79.201 578.9 77.901 580.3 76.201 Z M 671.8 76.201 L 671.8 78.501 L 672 80.501 C 672.471 82.575 673.653 83.76 675.463 83.889 A 4.736 4.736 0 0 0 675.8 83.901 L 676.7 83.801 A 11.364 11.364 0 0 0 679.522 83.031 C 679.949 82.857 680.376 82.661 680.813 82.445 A 26.695 26.695 0 0 0 680.9 82.401 C 684.9 80.401 688.4 77.701 691.8 74.801 A 28.197 28.197 0 0 0 694.222 72.623 A 56.161 56.161 0 0 1 695.4 71.501 C 695.663 71.239 695.772 70.976 695.795 70.714 A 1.275 1.275 0 0 0 695.8 70.601 A 0.946 0.946 0 0 0 695.564 69.94 A 0.911 0.911 0 0 0 695.4 69.801 A 1.074 1.074 0 0 0 694.796 69.516 A 1.338 1.338 0 0 0 694.6 69.501 A 0.873 0.873 0 0 0 694.41 69.525 C 694.255 69.56 694.071 69.634 693.884 69.748 A 2.312 2.312 0 0 0 693.8 69.801 A 2.388 2.388 0 0 1 693.112 70.426 A 22.485 22.485 0 0 1 693 70.501 C 690.1 73.001 687.1 75.401 683.8 77.401 C 681.7 78.701 679.6 79.901 677.2 80.501 L 676 80.701 A 1.123 1.123 0 0 1 675.557 80.625 C 675.177 80.463 675.036 80.028 675.006 79.193 A 11.018 11.018 0 0 1 675 78.801 A 61.124 61.124 0 0 1 675.063 76.201 A 163.701 163.701 0 0 1 675.2 73.601 L 675.2 73.201 C 675.2 72.422 675.05 71.792 674.426 71.378 A 2.21 2.21 0 0 0 674.1 71.201 A 0.859 0.859 0 0 1 673.921 71.084 C 673.845 71.019 673.795 70.947 673.762 70.87 A 1.179 1.179 0 0 1 673.7 70.401 A 5.35 5.35 0 0 0 673.532 69.269 C 673.194 68.024 672.384 67.401 671.2 67.401 C 670.8 67.401 670.3 67.501 669.8 67.601 C 665.512 68.852 658.91 77.683 657.55 83.118 A 7.468 7.468 0 0 0 657.3 84.901 A 3.725 3.725 0 0 0 657.373 85.674 A 1.889 1.889 0 0 0 658.3 87.001 A 3.436 3.436 0 0 0 658.69 87.204 C 658.844 87.272 658.99 87.319 659.131 87.351 A 2.141 2.141 0 0 0 659.6 87.401 A 3.218 3.218 0 0 0 661.278 86.827 C 661.525 86.673 661.764 86.501 661.995 86.329 A 77.599 77.599 0 0 0 662.3 86.101 C 664.4 84.501 666.2 82.501 667.9 80.601 C 669.2 79.201 670.4 77.901 671.8 76.201 Z M 786.4 76.201 L 786.4 78.501 L 786.6 80.501 C 787.071 82.575 788.253 83.76 790.063 83.889 A 4.736 4.736 0 0 0 790.4 83.901 L 791.3 83.801 A 11.364 11.364 0 0 0 794.122 83.031 C 794.549 82.857 794.976 82.661 795.413 82.445 A 26.695 26.695 0 0 0 795.5 82.401 C 799.5 80.401 803 77.701 806.4 74.801 A 28.197 28.197 0 0 0 808.822 72.623 A 56.161 56.161 0 0 1 810 71.501 C 810.263 71.239 810.372 70.976 810.395 70.714 A 1.275 1.275 0 0 0 810.4 70.601 A 0.946 0.946 0 0 0 810.164 69.94 A 0.911 0.911 0 0 0 810 69.801 A 1.074 1.074 0 0 0 809.396 69.516 A 1.338 1.338 0 0 0 809.2 69.501 A 0.873 0.873 0 0 0 809.01 69.525 C 808.855 69.56 808.671 69.634 808.484 69.748 A 2.312 2.312 0 0 0 808.4 69.801 A 2.388 2.388 0 0 1 807.712 70.426 A 22.485 22.485 0 0 1 807.6 70.501 C 804.7 73.001 801.7 75.401 798.4 77.401 C 796.3 78.701 794.2 79.901 791.8 80.501 L 790.6 80.701 A 1.123 1.123 0 0 1 790.157 80.625 C 789.777 80.463 789.636 80.028 789.606 79.193 A 11.018 11.018 0 0 1 789.6 78.801 A 61.124 61.124 0 0 1 789.663 76.201 A 163.701 163.701 0 0 1 789.8 73.601 L 789.8 73.201 C 789.8 72.422 789.65 71.792 789.026 71.378 A 2.21 2.21 0 0 0 788.7 71.201 A 0.859 0.859 0 0 1 788.521 71.084 C 788.445 71.019 788.395 70.947 788.362 70.87 A 1.179 1.179 0 0 1 788.3 70.401 A 5.35 5.35 0 0 0 788.132 69.269 C 787.794 68.024 786.984 67.401 785.8 67.401 C 785.4 67.401 784.9 67.501 784.4 67.601 C 780.112 68.852 773.51 77.683 772.15 83.118 A 7.468 7.468 0 0 0 771.9 84.901 A 3.725 3.725 0 0 0 771.973 85.674 A 1.889 1.889 0 0 0 772.9 87.001 A 3.436 3.436 0 0 0 773.29 87.204 C 773.444 87.272 773.59 87.319 773.731 87.351 A 2.141 2.141 0 0 0 774.2 87.401 A 3.218 3.218 0 0 0 775.878 86.827 C 776.125 86.673 776.364 86.501 776.595 86.329 A 77.599 77.599 0 0 0 776.9 86.101 C 779 84.501 780.8 82.501 782.5 80.601 C 783.8 79.201 785 77.901 786.4 76.201 Z M 622.2 76.201 L 623.5 76.201 C 628.3 76.201 632.8 74.701 637 72.601 A 0.438 0.438 0 0 1 637.042 72.564 C 637.126 72.499 637.2 72.487 637.2 72.401 A 1.253 1.253 0 0 0 637.56 72.042 A 0.821 0.821 0 0 0 637.7 71.601 L 637.6 71.101 A 1.334 1.334 0 0 0 636.973 70.485 A 0.917 0.917 0 0 0 636.6 70.401 L 635.2 70.701 C 631.7 71.901 628.1 72.701 624.4 72.701 L 624 72.701 A 7.35 7.35 0 0 1 621.329 72.258 C 620.449 71.917 619.675 71.361 619.018 70.529 A 7.254 7.254 0 0 1 618.4 69.601 C 617.6 68.301 616.7 67.701 615.5 67.701 C 615.092 67.701 614.592 67.794 614.062 68.01 A 5.016 5.016 0 0 0 613.3 68.401 C 611.9 69.301 610.6 70.301 609.4 71.401 C 607.8 72.701 606.2 74.101 604.6 75.501 L 604.3 75.301 C 605.1 72.401 606.3 69.701 608.1 67.301 A 5.852 5.852 0 0 0 608.525 66.747 C 608.661 66.544 608.768 66.347 608.845 66.154 A 1.997 1.997 0 0 0 609 65.401 A 1.043 1.043 0 0 0 608.69 64.657 C 608.61 64.571 608.516 64.488 608.405 64.405 A 3.108 3.108 0 0 0 608.4 64.401 A 3.639 3.639 0 0 0 608.044 64.163 C 607.822 64.034 607.6 63.946 607.378 63.914 A 1.258 1.258 0 0 0 607.2 63.901 A 1.908 1.908 0 0 0 605.931 64.407 A 3.372 3.372 0 0 0 605.4 65.001 C 602.9 68.401 601.5 72.301 601 76.501 L 600.9 77.201 A 2.566 2.566 0 0 0 601.672 79.072 A 3.427 3.427 0 0 0 602.2 79.501 C 602.684 79.792 603.075 79.895 603.553 79.901 A 3.629 3.629 0 0 0 603.6 79.901 C 604.166 79.901 604.667 79.705 605.208 79.418 A 14.065 14.065 0 0 0 605.6 79.201 C 607 78.401 608 77.301 609.1 76.201 C 610.7 74.701 612.2 73.201 614 71.901 A 6.256 6.256 0 0 1 614.163 71.782 C 614.453 71.579 614.635 71.505 614.881 71.501 A 1.309 1.309 0 0 1 614.9 71.501 A 0.553 0.553 0 0 1 615.263 71.632 C 615.401 71.743 615.535 71.927 615.7 72.201 C 617.1 74.701 619.4 76.101 622.2 76.201 Z M 25.2 63.701 L 25 63.401 C 25 63.205 25.192 62.913 25.294 62.713 A 1.806 1.806 0 0 0 25.3 62.701 C 31.4 48.301 38.2 34.401 47.4 21.701 L 49 19.701 C 49.092 19.517 49.184 19.418 49.354 19.403 A 0.534 0.534 0 0 1 49.4 19.401 L 49.5 19.401 A 0.435 0.435 0 0 1 49.623 19.464 C 49.8 19.595 49.8 19.833 49.8 20.001 L 49.8 22.301 L 49.7 22.301 L 47 56.701 A 2.564 2.564 0 0 1 46.937 57.302 C 46.79 57.911 46.375 58.246 45.6 58.401 C 39.1 59.701 32.7 61.501 26.3 63.501 A 3.365 3.365 0 0 0 26.206 63.55 C 26.031 63.645 25.806 63.773 25.575 63.797 A 0.722 0.722 0 0 1 25.5 63.801 A 0.486 0.486 0 0 1 25.308 63.775 C 25.281 63.764 25.254 63.748 25.227 63.726 A 0.389 0.389 0 0 1 25.2 63.701 Z M 103 78.701 L 103.3 78.901 L 103.4 79.101 A 0.438 0.438 0 0 1 103.351 79.289 C 103.289 79.417 103.183 79.546 103.114 79.675 A 0.922 0.922 0 0 0 103.1 79.701 C 99.4 86.901 95 93.701 88.9 99.101 A 13.572 13.572 0 0 1 83.889 102.198 A 8.114 8.114 0 0 1 83.5 102.301 L 82.6 102.401 C 81.478 102.401 80.803 101.731 80.575 100.391 A 6.146 6.146 0 0 1 80.5 99.701 A 9.466 9.466 0 0 1 81.46 96.227 A 15.049 15.049 0 0 1 82.3 94.701 C 83.8 92.301 85.8 90.201 88.1 88.401 C 92.5 84.801 97.4 81.801 102.4 79.001 A 0.628 0.628 0 0 1 102.436 78.968 C 102.558 78.864 102.811 78.707 102.99 78.701 A 0.311 0.311 0 0 1 103 78.701 Z M 577.1 71.601 L 577.9 71.001 A 1.129 1.129 0 0 1 578.151 70.875 C 578.332 70.811 578.503 70.803 578.638 70.801 A 6.909 6.909 0 0 1 578.7 70.801 C 579.4 70.801 579.5 71.401 579.5 71.901 A 6.084 6.084 0 0 1 579.494 72.247 C 579.486 72.376 579.469 72.487 579.432 72.557 A 0.186 0.186 0 0 1 579.4 72.601 C 576.3 76.301 573.2 79.901 569.6 83.001 A 0.076 0.076 0 0 1 569.54 83.082 C 569.481 83.101 569.374 83.101 569.2 83.101 A 32.042 32.042 0 0 1 576.403 72.212 A 21.194 21.194 0 0 1 577.1 71.601 Z M 668.6 71.601 L 669.4 71.001 A 1.129 1.129 0 0 1 669.651 70.875 C 669.832 70.811 670.003 70.803 670.138 70.801 A 6.909 6.909 0 0 1 670.2 70.801 C 670.9 70.801 671 71.401 671 71.901 A 6.084 6.084 0 0 1 670.994 72.247 C 670.986 72.376 670.969 72.487 670.932 72.557 A 0.186 0.186 0 0 1 670.9 72.601 C 667.8 76.301 664.7 79.901 661.1 83.001 A 0.076 0.076 0 0 1 661.04 83.082 C 660.981 83.101 660.874 83.101 660.7 83.101 A 32.042 32.042 0 0 1 667.903 72.212 A 21.194 21.194 0 0 1 668.6 71.601 Z M 783.2 71.601 L 784 71.001 A 1.129 1.129 0 0 1 784.251 70.875 C 784.432 70.811 784.603 70.803 784.738 70.801 A 6.909 6.909 0 0 1 784.8 70.801 C 785.5 70.801 785.6 71.401 785.6 71.901 A 6.084 6.084 0 0 1 785.594 72.247 C 785.586 72.376 785.569 72.487 785.532 72.557 A 0.186 0.186 0 0 1 785.5 72.601 C 782.4 76.301 779.3 79.901 775.7 83.001 A 0.076 0.076 0 0 1 775.64 83.082 C 775.581 83.101 775.474 83.101 775.3 83.101 A 32.042 32.042 0 0 1 782.503 72.212 A 21.194 21.194 0 0 1 783.2 71.601 Z M 353.194 99.699 A 2.503 2.503 0 0 1 353.196 99.7 A 2.523 2.523 0 0 1 353.198 99.7 C 356 100.601 358.8 101.201 361.6 101.901 L 362 102.001 A 0.309 0.309 0 0 0 362.245 101.896 C 362.358 101.767 362.4 101.527 362.4 101.201 C 362.6 100.001 362.7 98.801 362.8 97.601 L 362.6 97.601 L 363 93.401 A 1.918 1.918 0 0 0 362.997 93.292 C 362.985 93.08 362.935 92.975 362.847 92.93 A 0.319 0.319 0 0 0 362.7 92.901 L 362.3 93.001 A 273.001 273.001 0 0 1 359.905 94.251 A 53.762 53.762 0 0 0 353 98.301 A 12.398 12.398 0 0 0 352.888 98.376 C 352.63 98.553 352.4 98.739 352.4 99.001 L 352.4 99.101 A 0.472 0.472 0 0 0 352.4 99.114 C 352.411 99.498 352.89 99.6 353.188 99.697 M 733.8 139.001 C 734.9 134.301 736.7 130.001 739.5 126.101 C 738.1 130.601 736.6 135.001 733.8 139.001 Z M 165.8 59.701 L 165.7 60.301 C 165.7 60.814 165.846 61.18 166.262 61.401 A 1.56 1.56 0 0 0 166.5 61.501 L 167 61.601 A 1.236 1.236 0 0 0 167.995 61.088 A 2.7 2.7 0 0 0 168.3 60.601 C 168.738 59.726 169.022 58.928 169.488 58.072 A 10.242 10.242 0 0 1 169.7 57.701 A 0.603 0.603 0 0 0 169.835 57.49 C 169.9 57.323 169.9 57.139 169.9 57.001 C 169.9 56.401 169.3 55.801 168.5 55.701 C 167.893 55.701 167.512 56.002 167.161 56.407 A 6.469 6.469 0 0 0 167 56.601 C 166.5 57.601 166 58.601 165.8 59.701 Z M 717.3 59.701 L 717.2 60.301 C 717.2 60.814 717.346 61.18 717.762 61.401 A 1.56 1.56 0 0 0 718 61.501 L 718.5 61.601 A 1.236 1.236 0 0 0 719.495 61.088 A 2.7 2.7 0 0 0 719.8 60.601 C 720.238 59.726 720.522 58.928 720.988 58.072 A 10.242 10.242 0 0 1 721.2 57.701 A 0.603 0.603 0 0 0 721.335 57.49 C 721.4 57.323 721.4 57.139 721.4 57.001 C 721.4 56.401 720.8 55.801 720 55.701 C 719.393 55.701 719.012 56.002 718.661 56.407 A 6.469 6.469 0 0 0 718.5 56.601 C 718 57.601 717.5 58.601 717.3 59.701 Z M 244.8 67.801 L 245.2 67.701 A 0.609 0.609 0 0 1 245.35 67.714 C 245.392 67.724 245.434 67.744 245.477 67.78 A 0.394 0.394 0 0 1 245.5 67.801 C 245.55 67.851 245.575 67.901 245.588 67.951 A 0.609 0.609 0 0 1 245.6 68.101 L 245.5 68.401 C 244.6 69.501 243.4 70.301 242 70.801 C 242.7 69.601 243.6 68.501 244.8 67.801 Z M 353.2 99.701 C 353.199 99.701 353.199 99.701 353.198 99.7 M 353.194 99.699 C 353.193 99.699 353.193 99.699 353.192 99.699 M 353.192 99.699 C 353.191 99.698 353.191 99.698 353.19 99.698" vector-effect="non-scaling-stroke"/></g></svg>