<svg width="447" height="129.3" viewBox="0 0 447 129.3" xmlns="http://www.w3.org/2000/svg"><g id="svgGroup" stroke-linecap="round" fill-rule="evenodd" font-size="9pt" stroke="#000" stroke-width="0.25mm" fill="#000" style="stroke:#000;stroke-width:0.25mm;fill:#000"><path d="M 20.3 100 L 20.8 83.6 C 21.099 76.123 21.696 42.009 22.79 34.27 A 21.171 21.171 0 0 1 22.8 34.2 C 22.9 33.2 23.3 32.9 24.3 32.9 C 37.8 32.4 50.6 32.1 64.1 31 C 64.4 31 64.9 31 64.9 30.6 L 64.9 30.5 A 0.36 0.36 0 0 0 64.867 30.343 C 64.766 30.131 64.45 30.104 64.203 30.1 A 7.375 7.375 0 0 0 64.1 30.1 C 63.5 30.05 62.925 29.975 62.35 29.913 A 16.033 16.033 0 0 0 60.6 29.8 L 39.9 29.9 A 735.219 735.219 0 0 1 34.202 29.88 C 29.652 29.844 25.999 29.758 24.801 29.596 A 1.152 1.152 0 0 1 24.4 29.5 C 24.215 29.315 24.116 29.044 24.102 28.609 A 3.428 3.428 0 0 1 24.1 28.5 A 6.453 6.453 0 0 1 24.177 27.592 C 24.497 25.397 25.7 21.921 25.7 20.1 C 25.7 19.5 25.6 19 25.2 18.9 L 24.6 18.8 A 1.922 1.922 0 0 0 23.424 19.228 A 3.944 3.944 0 0 0 23 19.6 C 22.5 20.3 22.2 21 21.9 21.8 C 21 24 20.5 26.4 20.1 28.8 A 1.709 1.709 0 0 1 20.054 29.226 C 19.964 29.569 19.734 29.785 19.254 29.799 A 1.75 1.75 0 0 1 19.2 29.8 L 12.3 29.8 A 1.006 1.006 0 0 1 11.893 29.746 C 11.76 29.686 11.652 29.562 11.6 29.3 A 9.414 9.414 0 0 0 11.475 28.467 C 11.233 27.28 10.759 26.8 9.6 26.8 L 8.6 26.9 A 18.139 18.139 0 0 0 1.705 29.74 A 99.964 99.964 0 0 0 0.8 30.3 C 0.2 30.7 0 31.2 0 31.7 A 12.414 12.414 0 0 0 0.001 31.86 C 0.004 32.079 0.019 32.256 0.1 32.5 A 2.333 2.333 0 0 0 0.607 33.32 A 1.975 1.975 0 0 0 1.8 33.9 L 18.7 33.1 C 19.234 33.1 19.451 33.258 19.492 33.786 A 2.744 2.744 0 0 1 19.5 34 L 19.5 34.3 C 18.9 39.4 18.6 65 18.6 75.2 L 18.6 90.5 C 18.7 93.5 18.9 96.4 19.2 99.4 L 19.2 99.8 A 3.459 3.459 0 0 0 19.207 100.018 C 19.225 100.312 19.286 100.606 19.426 100.769 A 0.349 0.349 0 0 0 19.7 100.9 C 20.168 100.9 20.286 100.55 20.299 100.095 A 3.284 3.284 0 0 0 20.3 100 Z" id="0" vector-effect="non-scaling-stroke"/><path d="M 53.6 62 L 54 63.1 C 54.705 64.863 55.618 66.074 56.778 66.772 A 5.349 5.349 0 0 0 59.6 67.5 A 8.273 8.273 0 0 0 61.026 67.38 C 61.323 67.329 61.634 67.26 61.966 67.167 A 11.666 11.666 0 0 0 62.2 67.1 L 63.6 66.7 C 68.8 64.7 73.8 62.1 78.8 59.4 L 79.9 58.7 C 80.467 58.214 80.772 57.793 80.867 57.332 A 1.636 1.636 0 0 0 80.9 57 C 80.9 56.756 80.834 56.513 80.702 56.269 A 2.154 2.154 0 0 0 80.6 56.1 A 2.03 2.03 0 0 0 80.26 55.703 A 1.66 1.66 0 0 0 79.1 55.3 A 2.554 2.554 0 0 0 78.181 55.476 A 3.136 3.136 0 0 0 77.9 55.6 L 72.4 58.3 A 623.748 623.748 0 0 0 70.549 59.106 A 89.801 89.801 0 0 1 61.1 62.8 C 60.6 63 60.1 63 59.8 63 C 59.005 63 58.704 62.605 58.209 61.421 A 20.247 20.247 0 0 1 58.2 61.4 L 56.8 58.3 A 4.993 4.993 0 0 0 55.616 56.861 A 4.345 4.345 0 0 0 52.8 55.9 C 52.312 55.9 51.823 55.9 51.242 56.086 A 3.777 3.777 0 0 0 51.2 56.1 A 10.422 10.422 0 0 0 48.163 57.548 A 41.969 41.969 0 0 0 47.2 58.2 C 44.4 60.3 42 62.8 39.6 65.5 A 5.336 5.336 0 0 0 39.591 65.509 C 39.122 65.98 38.831 66.449 38.717 66.496 A 0.045 0.045 0 0 1 38.7 66.5 L 39.1 65.2 C 46.1 43.7 51 28.8 62 9 A 65.395 65.395 0 0 0 62.959 7.222 A 22.931 22.931 0 0 0 64.5 3.6 A 8.068 8.068 0 0 1 64.646 3.001 C 64.807 2.425 64.999 1.927 65.071 1.509 A 1.832 1.832 0 0 0 65.1 1.2 A 0.928 0.928 0 0 0 64.959 0.689 C 64.859 0.533 64.706 0.403 64.5 0.3 A 2.889 2.889 0 0 0 63.825 0.057 A 2.45 2.45 0 0 0 63.3 0 A 2.56 2.56 0 0 0 62.363 0.183 C 61.875 0.374 61.388 0.713 60.9 1.2 C 59.6 2.5 58.7 4.1 57.8 5.6 C 54.3 11.6 51.6 17.9 49.3 24.3 A 420.21 420.21 0 0 0 46.939 30.916 C 44.892 36.803 43.237 41.953 42.401 44.727 A 103.92 103.92 0 0 0 42.2 45.4 A 1659.691 1659.691 0 0 1 38.963 55.122 A 830.063 830.063 0 0 1 32.2 74.5 A 45.849 45.849 0 0 0 31.995 75.123 C 31.82 75.677 31.709 76.115 31.701 76.547 A 2.722 2.722 0 0 0 31.7 76.6 A 2.302 2.302 0 0 0 31.773 77.208 C 31.875 77.579 32.083 77.87 32.419 78.118 A 2.837 2.837 0 0 0 32.7 78.3 C 32.941 78.461 33.248 78.557 33.514 78.589 A 1.595 1.595 0 0 0 33.7 78.6 A 1.937 1.937 0 0 0 34.577 78.373 C 35.133 78.092 35.716 77.543 36.3 76.7 C 38.2 74 40.2 71.3 42.4 68.9 C 44.9 66 47.5 63.2 50.8 61.1 C 51.31 60.736 51.713 60.531 52.049 60.446 A 1.434 1.434 0 0 1 52.4 60.4 A 0.605 0.605 0 0 1 52.876 60.625 C 53.097 60.871 53.291 61.321 53.6 62 Z" id="1" vector-effect="non-scaling-stroke"/><path d="M 107.7 58 L 107.5 57.6 A 0.878 0.878 0 0 0 107.268 57.362 A 0.984 0.984 0 0 0 106.7 57.2 A 0.922 0.922 0 0 0 106.353 57.281 A 3.84 3.84 0 0 0 106.1 57.4 L 105.4 57.9 C 99.7 62.4 93.5 66.1 86.6 68.6 C 84.9 69.3 83.1 69.8 81.2 69.9 A 5.118 5.118 0 0 1 80.115 69.798 C 78.867 69.525 78.28 68.694 78.2 67.1 C 78.2 64.8 78.9 62.8 79.7 60.7 C 79.893 60.507 79.993 60.222 80.268 60.201 A 0.43 0.43 0 0 1 80.3 60.2 L 81.4 60.3 C 83.1 60.3 84.4 59.2 85.8 58.4 C 87.2 57.6 88.5 56.5 89.2 55 A 9.413 9.413 0 0 0 89.49 54.249 C 89.593 53.937 89.663 53.64 89.689 53.346 A 2.815 2.815 0 0 0 89.7 53.1 A 2.914 2.914 0 0 0 89.29 51.658 A 3.905 3.905 0 0 0 88.9 51.1 A 3.89 3.89 0 0 0 88.113 50.281 A 3.515 3.515 0 0 0 85.9 49.6 L 85.2 49.6 C 83.9 49.8 82.8 50.4 81.9 51.3 C 77.5 55.7 75.2 61.1 75.2 67.2 L 75.2 67.6 C 75.2 71.1 77.5 73.1 80.9 73.1 L 81.1 73.1 C 82.7 73.1 84.2 72.7 85.7 72.2 C 90.6 70.5 95.1 68 99.4 65.1 C 102.2 63.2 104.8 61.1 107.2 58.7 C 107.341 58.559 107.533 58.417 107.633 58.24 A 0.482 0.482 0 0 0 107.7 58 Z M 85.2 53.3 L 85.6 53.2 A 0.609 0.609 0 0 1 85.75 53.212 C 85.792 53.223 85.834 53.242 85.877 53.278 A 0.394 0.394 0 0 1 85.9 53.3 C 85.95 53.35 85.975 53.4 85.988 53.45 A 0.609 0.609 0 0 1 86 53.6 L 85.9 53.9 C 85 55 83.8 55.8 82.4 56.3 C 83.1 55.1 84 54 85.2 53.3 Z" id="2" vector-effect="non-scaling-stroke"/><path d="M 159.7 55.8 L 159.3 55.7 A 12.414 12.414 0 0 0 159.141 55.701 C 158.922 55.704 158.744 55.719 158.5 55.8 C 156.4 56.2 154.4 57 152.5 57.7 A 44.529 44.529 0 0 1 152.097 57.853 C 150.493 58.451 146.956 59.7 146.5 59.7 L 146.4 59.5 L 146.8 57.7 A 22.895 22.895 0 0 0 147.388 54.95 A 18.785 18.785 0 0 0 147.6 52.2 A 26.928 26.928 0 0 0 147.59 51.271 A 7.442 7.442 0 0 0 147.5 50.3 A 6.856 6.856 0 0 0 146.34 47.331 A 5.794 5.794 0 0 0 141.5 44.9 L 140.4 45 C 138.2 45.2 136.1 46 134.2 46.9 C 129.2 49.5 124.8 53 120.7 56.8 C 115.2 61.9 110.4 67.7 105.8 73.7 C 105.5 74 105.2 74.2 105.1 74.2 A 0.324 0.324 0 0 1 104.846 74.056 C 104.693 73.86 104.6 73.476 104.6 73 A 10.563 10.563 0 0 1 104.642 72.127 C 104.903 69.026 106.309 63.581 106.4 63.4 C 110.4 47.5 116.2 31.6 124.8 17.6 C 124.9 17.3 125 17 125.3 16.9 A 4.006 4.006 0 0 0 125.578 17.293 C 126.012 17.831 126.49 18.1 126.9 18.1 A 0.583 0.583 0 0 0 127.355 17.883 C 127.441 17.787 127.52 17.659 127.6 17.5 A 20.838 20.838 0 0 0 129.298 12.478 A 11.279 11.279 0 0 0 129.4 11.7 L 129.4 11.4 A 1.247 1.247 0 0 0 128.954 10.46 A 2.21 2.21 0 0 0 128.6 10.2 A 0.91 0.91 0 0 0 128.3 10.113 A 2.409 2.409 0 0 0 128 10.1 A 1.523 1.523 0 0 0 126.936 10.466 A 1.265 1.265 0 0 0 126.9 10.5 C 126.4 10.9 126 11.4 125.6 11.9 C 122.2 16.1 119.7 20.9 117.4 25.7 C 110.3 40.4 104.7 55.7 102.6 72 A 22.846 22.846 0 0 0 102.311 75.069 A 25.28 25.28 0 0 0 102.3 75.8 L 102.3 76.6 A 3.711 3.711 0 0 0 102.511 77.521 C 102.669 77.911 102.931 78.224 103.4 78.4 L 103.9 78.5 A 1.602 1.602 0 0 0 104.389 78.426 C 104.746 78.313 105.048 78.081 105.4 77.8 L 107 76 A 329.712 329.712 0 0 0 109.378 72.878 A 164.116 164.116 0 0 1 114.2 66.7 C 119.2 60.4 124.8 54.7 131.7 50.3 C 134 48.8 136.4 47.6 139.2 47.1 A 22.363 22.363 0 0 1 140.1 46.963 A 7.259 7.259 0 0 1 141 46.9 A 4.89 4.89 0 0 1 142.839 47.219 C 144.252 47.789 145.046 49.123 145.252 51.222 A 11.406 11.406 0 0 1 145.3 52 L 145.3 52.5 C 145.3 55 144.6 57.4 143.8 59.8 A 3.356 3.356 0 0 1 143.214 60.994 C 142.878 61.426 142.437 61.766 141.907 62.045 A 5.812 5.812 0 0 1 141.8 62.1 C 137.5 64.1 133.4 66.5 129.4 69 C 126.1 71.2 122.9 73.6 120.3 76.7 C 118.6 78.7 117.3 80.9 116.8 83.5 C 116.7 84.2 116.6 84.9 116.6 85.5 A 5.168 5.168 0 0 0 117.094 87.874 C 117.327 88.333 117.654 88.756 118.101 89.139 A 4.943 4.943 0 0 0 118.3 89.3 A 3.977 3.977 0 0 0 119.224 89.824 A 4.189 4.189 0 0 0 120.8 90.1 C 121.9 90.1 123.1 89.7 124.2 89.1 C 126.4 88 128.3 86.5 130 84.7 C 136.2 78.6 140.9 71.5 144.6 63.7 C 144.823 63.255 145.045 62.92 145.268 62.613 A 24.763 24.763 0 0 1 145.5 62.3 A 0.931 0.931 0 0 1 145.668 62.181 C 146.573 61.641 150.304 60.201 150.89 60.003 A 2.986 2.986 0 0 1 150.9 60 C 153.5 58.9 156.1 57.8 158.7 56.6 C 159.1 56.4 159.6 56.4 159.7 55.8 Z M 141.4 64.2 L 141.7 64.4 L 141.8 64.6 A 0.438 0.438 0 0 1 141.751 64.788 C 141.689 64.916 141.584 65.045 141.514 65.173 A 0.922 0.922 0 0 0 141.5 65.2 C 137.8 72.4 133.4 79.2 127.3 84.6 A 13.572 13.572 0 0 1 122.289 87.697 A 8.114 8.114 0 0 1 121.9 87.8 L 121 87.9 C 119.878 87.9 119.204 87.23 118.975 85.89 A 6.146 6.146 0 0 1 118.9 85.2 A 9.466 9.466 0 0 1 119.86 81.726 A 15.049 15.049 0 0 1 120.7 80.2 C 122.2 77.8 124.2 75.7 126.5 73.9 C 130.9 70.3 135.8 67.3 140.8 64.5 A 0.628 0.628 0 0 1 140.836 64.467 C 140.958 64.363 141.211 64.206 141.39 64.2 A 0.311 0.311 0 0 1 141.4 64.2 Z" id="3" vector-effect="non-scaling-stroke"/><path d="M 159.4 69.6 A 3.057 3.057 0 0 0 159.887 69.558 C 160.175 69.511 160.488 69.425 160.8 69.3 A 4.483 4.483 0 0 0 162.853 67.384 A 5.789 5.789 0 0 0 162.9 67.3 C 165.3 63.4 166.2 60 166.2 57.5 A 8.425 8.425 0 0 0 165.984 55.541 C 165.62 54.019 164.825 52.989 163.844 52.546 A 2.764 2.764 0 0 0 162.7 52.3 A 3.071 3.071 0 0 0 161.505 52.555 C 159.44 53.427 157.242 56.576 156.512 62.721 A 35.768 35.768 0 0 0 156.3 65.4 A 7.259 7.259 0 0 0 156.363 66.3 A 22.363 22.363 0 0 0 156.5 67.2 A 3.741 3.741 0 0 0 156.976 68.332 A 2.76 2.76 0 0 0 159.4 69.6 Z M 160.3 59.5 L 161.2 57 A 0.755 0.755 0 0 1 161.326 56.735 C 161.471 56.537 161.691 56.427 161.844 56.405 A 0.381 0.381 0 0 1 161.9 56.4 C 162.178 56.4 162.455 56.571 162.495 57.072 A 1.61 1.61 0 0 1 162.5 57.2 L 162.5 57.3 A 18.889 18.889 0 0 1 162.31 59.58 C 161.868 62.614 160.778 64.648 160.125 64.699 A 0.32 0.32 0 0 1 160.1 64.7 C 159.818 64.7 159.625 64.347 159.602 63.64 A 4.446 4.446 0 0 1 159.6 63.5 A 7.02 7.02 0 0 1 159.639 62.805 C 159.719 62.013 159.925 60.925 160.3 59.5 Z" id="4" vector-effect="non-scaling-stroke"/><path d="M 228.3 57 L 228.2 56.6 A 0.646 0.646 0 0 0 227.963 56.295 C 227.797 56.172 227.581 56.1 227.4 56.1 L 227 56.2 A 3.669 3.669 0 0 0 226.363 56.66 C 223.962 58.661 216.516 66.391 211.734 71.702 A 172.173 172.173 0 0 0 210.4 73.2 A 585.241 585.241 0 0 0 207.718 76.288 C 203.079 81.665 198.44 87.224 195.855 90.478 A 136.409 136.409 0 0 0 195.6 90.8 C 195.5 90.6 195.5 90.4 195.5 90.2 A 2.146 2.146 0 0 1 195.56 89.709 C 195.627 89.421 195.735 89.16 195.8 88.9 L 198.9 78.7 C 199.7 75.967 200.522 73.244 201.326 70.522 A 199.57 199.57 0 0 0 205.6 54.1 A 14.202 14.202 0 0 0 205.991 51.682 A 7.732 7.732 0 0 0 206 51.3 A 9.608 9.608 0 0 0 205.988 50.7 A 3.309 3.309 0 0 0 205.9 50.1 A 3.452 3.452 0 0 0 205.435 49.125 A 2.302 2.302 0 0 0 203.5 48.1 C 203.1 48.1 202.7 48.2 202.3 48.4 C 201.4 48.8 200.7 49.4 200 50.1 C 197 53.2 193.9 56.5 190.8 59.6 C 187.3 63.2 183.7 66.7 179.5 69.5 A 2.041 2.041 0 0 1 179.439 69.559 C 179.229 69.751 178.889 69.994 178.706 70 A 0.208 0.208 0 0 1 178.7 70 L 178.5 69.9 A 0.53 0.53 0 0 1 178.273 69.683 A 0.581 0.581 0 0 1 178.2 69.4 L 178.3 68.7 C 178.8 65.8 179.6 63 180.6 60.2 A 31.581 31.581 0 0 0 180.663 59.963 C 180.935 58.935 181.207 57.9 182.6 57.9 A 0.274 0.274 0 0 0 182.686 57.884 C 182.878 57.821 183.114 57.573 183.2 57.4 C 184 56 184.5 54.6 184.5 53 L 184.5 52.3 A 2.646 2.646 0 0 0 184.176 51.47 C 183.936 51.085 183.588 50.807 183.112 50.657 A 2.496 2.496 0 0 0 182.9 50.6 L 182.3 50.5 A 2.055 2.055 0 0 0 180.916 51.09 A 3.236 3.236 0 0 0 180.8 51.2 C 180.2 51.8 179.8 52.6 179.4 53.4 C 177.4 57.7 176 62.1 175 66.6 C 174.8 67.6 174.6 68.6 174.6 69.6 L 174.7 70.8 C 174.9 72.8 176.1 74 177.8 74 C 178.2 74 178.6 73.9 179 73.8 A 5.282 5.282 0 0 0 180.295 73.327 A 8.225 8.225 0 0 0 181.3 72.7 C 183.1 71.6 184.7 70.2 186.3 68.8 C 191.4 64.2 195.9 59.1 200.7 54.3 C 201.021 53.979 201.277 53.53 201.728 53.261 A 1.557 1.557 0 0 1 202.1 53.1 A 11.492 11.492 0 0 0 202.057 53.442 C 201.995 53.997 201.967 54.483 201.8 54.9 C 199.1 67.3 195.7 79.6 192.2 91.9 C 191.1 95.5 190 99 187.9 102.2 L 183.7 109 C 181.1 113.3 178.7 117.8 177.2 122.6 A 24.697 24.697 0 0 0 176.626 124.528 C 176.604 124.619 176.583 124.709 176.563 124.8 A 9.989 9.989 0 0 0 176.3 127 C 176.3 128 176.6 128.9 177.6 129.2 L 178.1 129.3 C 181.3 129.3 184.6 118.7 185.6 116.4 C 187.5 111.9 189.2 107.4 190.9 102.9 C 192.4 99.1 194.6 95.6 196.8 92.2 C 199.7 88.6 206 81 211.8 74.4 A 175.226 175.226 0 0 1 213.104 72.928 C 218.234 67.197 226.627 58.43 227.769 57.816 A 0.525 0.525 0 0 1 227.8 57.8 A 0.646 0.646 0 0 0 228.105 57.563 C 228.228 57.397 228.3 57.18 228.3 57 Z M 180 124.5 C 181.1 119.8 182.9 115.5 185.7 111.6 C 184.3 116.1 182.8 120.5 180 124.5 Z" id="5" vector-effect="non-scaling-stroke"/><path d="M 227.5 69.6 A 3.057 3.057 0 0 0 227.987 69.558 C 228.275 69.511 228.588 69.425 228.9 69.3 A 4.483 4.483 0 0 0 230.953 67.384 A 5.789 5.789 0 0 0 231 67.3 C 233.4 63.4 234.3 60 234.3 57.5 A 8.425 8.425 0 0 0 234.084 55.541 C 233.72 54.019 232.925 52.989 231.944 52.546 A 2.764 2.764 0 0 0 230.8 52.3 A 3.071 3.071 0 0 0 229.605 52.555 C 227.54 53.427 225.342 56.576 224.612 62.721 A 35.768 35.768 0 0 0 224.4 65.4 A 7.259 7.259 0 0 0 224.463 66.3 A 22.363 22.363 0 0 0 224.6 67.2 A 3.741 3.741 0 0 0 225.076 68.332 A 2.76 2.76 0 0 0 227.5 69.6 Z M 228.4 59.5 L 229.3 57 A 0.755 0.755 0 0 1 229.426 56.735 C 229.571 56.537 229.791 56.427 229.944 56.405 A 0.381 0.381 0 0 1 230 56.4 C 230.278 56.4 230.555 56.571 230.595 57.072 A 1.61 1.61 0 0 1 230.6 57.2 L 230.6 57.3 A 18.889 18.889 0 0 1 230.41 59.58 C 229.968 62.614 228.878 64.648 228.225 64.699 A 0.32 0.32 0 0 1 228.2 64.7 C 227.918 64.7 227.725 64.347 227.702 63.64 A 4.446 4.446 0 0 1 227.7 63.5 A 7.02 7.02 0 0 1 227.739 62.805 C 227.819 62.013 228.025 60.925 228.4 59.5 Z" id="6" vector-effect="non-scaling-stroke"/><path d="M 269.5 57.6 L 271.1 56.5 A 0.875 0.875 0 0 1 271.184 56.426 C 271.352 56.296 271.5 56.272 271.5 56.1 L 271.4 55.9 A 0.692 0.692 0 0 0 271.37 55.845 C 271.28 55.7 271.19 55.7 271.1 55.7 L 270.8 55.8 C 269.8 56 268.9 56.4 268 56.8 A 162.814 162.814 0 0 0 263.899 58.927 C 258.875 61.621 253.473 64.828 249.044 67.873 A 97.512 97.512 0 0 0 248 68.6 A 63.988 63.988 0 0 0 247.986 68.611 C 247.194 69.205 246.699 69.6 246.5 69.6 C 246.4 69.6 246.3 69.5 246.3 69.2 L 246.5 67.8 C 247.6 61.001 254.698 33.906 260.998 23.803 A 39.773 39.773 0 0 1 261 23.8 A 15.333 15.333 0 0 0 261.011 23.785 C 261.533 23.052 263.909 19.6 265.2 19.6 C 265.7 19.6 266 19.9 266.1 20.8 A 8.647 8.647 0 0 1 266.198 22.131 A 47.382 47.382 0 0 1 266.2 22.7 L 266.2 24.1 C 266.2 27.2 266 30.3 265.8 33.4 C 265.7 36.9 265.4 40.4 265.4 44 L 265.4 45.9 A 1.215 1.215 0 0 0 265.409 46.052 C 265.44 46.291 265.553 46.541 265.877 46.591 A 0.807 0.807 0 0 0 266 46.6 C 266.7 46.6 266.788 46.064 266.798 45.528 A 11.18 11.18 0 0 0 266.8 45.3 L 268.6 27.5 A 68.175 68.175 0 0 1 268.722 26 A 33.945 33.945 0 0 0 268.9 23 C 268.9 21.8 268.8 20.6 268.5 19.4 A 4.209 4.209 0 0 0 267.937 18.051 C 267.576 17.521 267.057 17.158 266.3 17.1 L 266.1 17.1 A 2.558 2.558 0 0 0 265.387 17.212 C 264.159 17.57 262.805 18.719 262.043 19.553 A 8.323 8.323 0 0 0 262 19.6 A 39.476 39.476 0 0 0 257.381 26.508 C 249.864 40.36 244.692 63.143 243.1 76.8 A 152.246 152.246 0 0 0 243.021 77.702 C 242.801 80.287 242.648 82.872 242.61 84.933 A 51.719 51.719 0 0 0 242.6 85.9 A 109.74 109.74 0 0 0 242.739 91.967 A 45.877 45.877 0 0 0 243.8 99.9 A 19.37 19.37 0 0 0 244.019 100.822 C 244.162 101.347 244.359 101.872 244.697 102.343 A 3.379 3.379 0 0 0 244.9 102.6 A 3.652 3.652 0 0 0 245.444 103.057 A 1.858 1.858 0 0 0 246.5 103.4 C 247.016 103.4 247.531 103.105 247.92 102.577 A 2.852 2.852 0 0 0 248.1 102.3 A 330.372 330.372 0 0 0 248.593 101.422 C 248.906 100.853 249.191 100.285 249.391 99.631 A 6.57 6.57 0 0 0 249.4 99.6 C 250.8 95 251.3 90.3 251.9 85.6 C 252.2 83.5 252.5 81.4 252.5 79.3 C 252.5 78.1 252.4 76.9 252.2 75.7 A 13.071 13.071 0 0 0 252.144 75.096 C 252.045 74.263 251.852 73.429 251.463 72.739 A 3.297 3.297 0 0 0 250.8 71.9 A 4.782 4.782 0 0 1 250.566 71.651 C 250.322 71.369 250.2 71.134 250.2 70.9 C 250.2 70.423 250.563 70.129 251.117 69.756 A 20.659 20.659 0 0 1 251.2 69.7 A 94.254 94.254 0 0 1 254.21 67.473 C 257.745 64.958 261.767 62.388 265.503 60.066 A 839.555 839.555 0 0 1 269.5 57.6 Z M 250.2 78 L 250.1 80 A 5.474 5.474 0 0 1 250.078 80.252 C 249.856 82.456 248.042 98.149 246.731 98.397 A 0.168 0.168 0 0 1 246.7 98.4 C 246.5 98.4 246.3 97.9 246.1 96.8 A 63.65 63.65 0 0 1 245.388 90.45 A 98.432 98.432 0 0 1 245.2 84.1 C 245.2 81.2 245.3 78.4 245.5 75.5 C 245.592 74.492 246.608 73.399 247.624 73.224 A 1.628 1.628 0 0 1 247.9 73.2 C 248.689 73.2 249.381 73.687 249.784 74.949 A 5.23 5.23 0 0 1 249.8 75 C 250.1 76 250.2 77 250.2 78 Z" id="7" vector-effect="non-scaling-stroke"/><path d="M 289.1 106.5 L 290 100.2 A 314.805 314.805 0 0 0 290.048 99.854 C 292.113 84.755 299.336 24.493 303.9 10.8 L 304 9.8 A 1.378 1.378 0 0 0 303.452 8.661 A 2.041 2.041 0 0 0 303 8.4 A 1.129 1.129 0 0 0 302.749 8.274 C 302.568 8.21 302.398 8.201 302.262 8.2 A 6.909 6.909 0 0 0 302.2 8.2 C 301.6 8.2 301 8.5 300.7 9.3 A 13.109 13.109 0 0 0 299.641 12.078 A 27.188 27.188 0 0 0 299.3 13.5 C 298.4 16.2 297.9 19.1 296.8 21.7 C 292.1 33 289.2 39.3 283.7 50.7 A 0.333 0.333 0 0 1 283.698 50.733 C 283.683 50.88 283.583 51.3 283.4 51.3 C 283.3 51.3 283.1 51.2 283 51 C 282.35 50.35 281.725 49.9 281.1 49.613 A 4.455 4.455 0 0 0 279.2 49.2 A 6.395 6.395 0 0 0 277.957 49.333 C 277.331 49.458 276.698 49.661 276.1 49.9 A 12.752 12.752 0 0 0 271.248 53.684 A 15.483 15.483 0 0 0 271 54 C 266 59.9 263.5 66.9 262.4 74.6 L 262.3 76.9 A 275.59 275.59 0 0 0 262.3 77.118 C 262.301 78.091 262.313 78.072 262.499 79.095 A 56.092 56.092 0 0 0 262.5 79.1 A 5.762 5.762 0 0 0 263.132 80.777 C 263.516 81.438 264.019 81.939 264.601 82.264 A 3.456 3.456 0 0 0 266.3 82.7 C 266.9 82.7 267.6 82.5 268.4 82.1 A 10.762 10.762 0 0 0 270.964 80.004 C 271.074 79.888 271.183 79.772 271.291 79.656 A 73.824 73.824 0 0 0 271.8 79.1 C 275.5 74.4 278.4 69.2 281.1 63.7 C 286.2 53.2 290.4 42.2 294.9 31.3 C 295.073 30.868 295.171 30.361 295.518 29.973 A 1.503 1.503 0 0 1 295.7 29.8 L 295.9 30.6 L 295.8 31.6 A 238.983 238.983 0 0 0 295.377 34.774 C 293.48 49.569 288.1 96.748 288.1 106.1 L 288 107 A 0.582 0.582 0 0 0 288.009 107.1 C 288.037 107.261 288.143 107.443 288.444 107.489 A 1.03 1.03 0 0 0 288.6 107.5 A 0.439 0.439 0 0 0 288.774 107.468 C 289.057 107.347 289.02 106.906 289.085 106.567 A 1.247 1.247 0 0 1 289.1 106.5 Z M 266.4 78.6 L 266.2 78.6 A 0.587 0.587 0 0 1 266.079 78.545 C 265.923 78.45 265.891 78.302 265.832 78.102 A 3.165 3.165 0 0 0 265.8 78 L 265.8 77.2 C 265.989 71.444 268.403 64.175 272.791 57.997 A 37.99 37.99 0 0 1 273.6 56.9 A 111.399 111.399 0 0 1 273.882 56.559 C 275.204 54.966 276.66 53.373 278.9 53 A 8.56 8.56 0 0 1 280.467 53.131 C 281.221 53.274 281.831 53.541 282.124 53.971 A 1.106 1.106 0 0 1 282.2 54.1 C 282.2 54.3 282 54.5 281.9 54.6 C 278.4 62 274.6 69.3 269.4 75.7 C 268.8 76.5 268 77.3 267.2 78.1 C 266.972 78.252 266.801 78.463 266.6 78.554 A 0.476 0.476 0 0 1 266.4 78.6 Z" id="8" vector-effect="non-scaling-stroke"/><path d="M 338 56.6 L 337.8 55.8 A 1.616 1.616 0 0 0 337.689 55.609 C 337.644 55.543 337.598 55.489 337.549 55.447 A 0.633 0.633 0 0 0 337.1 55.3 C 335.9 55.3 335.4 55.9 334 56.5 C 330.675 57.988 328.039 58.403 324.886 58.484 A 54.243 54.243 0 0 1 323.5 58.5 A 4.51 4.51 0 0 1 320.239 56.995 A 16.36 16.36 0 0 1 318.8 55.3 A 7.313 7.313 0 0 0 317.984 54.333 C 317.666 54.02 317.341 53.772 317.012 53.589 A 2.881 2.881 0 0 0 315.6 53.2 A 3.584 3.584 0 0 0 314.357 53.405 C 312.888 53.94 311.976 55.506 310.3 57.9 C 310.541 56.212 310.524 54.523 311.339 53.043 A 5.107 5.107 0 0 1 312.1 52 C 312.7 51.4 313.1 50.8 313.1 50.1 L 312.9 49.3 C 312.496 48.249 312.026 47.655 311.121 47.467 A 3.535 3.535 0 0 0 310.4 47.4 C 309.766 47.479 309.258 47.997 308.776 48.657 A 15.351 15.351 0 0 0 308.4 49.2 A 17.004 17.004 0 0 0 307.311 52.178 A 105.839 105.839 0 0 0 306.9 53.7 C 305.413 59.402 304.471 64.011 303.851 69.56 A 124.327 124.327 0 0 0 303.5 73.2 A 1.97 1.97 0 0 0 303.667 73.615 C 303.878 73.995 304.193 74.177 304.615 74.198 A 1.703 1.703 0 0 0 304.7 74.2 A 1.54 1.54 0 0 0 305.147 74.13 C 305.246 74.1 305.35 74.061 305.461 74.013 A 5.062 5.062 0 0 0 305.7 73.9 A 5.215 5.215 0 0 0 306.452 72.589 A 22.255 22.255 0 0 0 306.8 71.7 C 307.6 69.7 308.3 67.6 309.1 65.5 A 76.142 76.142 0 0 0 309.305 65.015 C 310.053 63.236 310.801 61.418 313.121 59.139 A 22.191 22.191 0 0 1 313.8 58.5 A 2.112 2.112 0 0 1 314.05 58.226 C 314.363 57.936 314.77 57.7 315 57.7 A 0.432 0.432 0 0 1 315.179 57.744 C 315.337 57.817 315.526 57.984 315.718 58.271 A 3.046 3.046 0 0 1 315.8 58.4 A 66.162 66.162 0 0 0 316.283 58.788 C 318.215 60.322 320.146 61.6 323.1 61.6 A 1477.208 1477.208 0 0 0 323.717 61.57 C 328.819 61.317 331.128 61.14 335.312 59.106 A 46.482 46.482 0 0 0 336.7 58.4 A 5.014 5.014 0 0 0 337.314 57.959 C 337.551 57.755 337.734 57.538 337.851 57.29 A 1.585 1.585 0 0 0 338 56.6 Z" id="9" vector-effect="non-scaling-stroke"/><path d="M 365.4 58 L 365.2 57.6 A 0.878 0.878 0 0 0 364.968 57.362 A 0.984 0.984 0 0 0 364.4 57.2 A 0.922 0.922 0 0 0 364.053 57.281 A 3.84 3.84 0 0 0 363.8 57.4 L 363.1 57.9 C 357.4 62.4 351.2 66.1 344.3 68.6 C 342.6 69.3 340.8 69.8 338.9 69.9 A 5.118 5.118 0 0 1 337.815 69.798 C 336.567 69.525 335.98 68.694 335.9 67.1 C 335.9 64.8 336.6 62.8 337.4 60.7 C 337.593 60.507 337.693 60.222 337.968 60.201 A 0.43 0.43 0 0 1 338 60.2 L 339.1 60.3 C 340.8 60.3 342.1 59.2 343.5 58.4 C 344.9 57.6 346.2 56.5 346.9 55 A 9.413 9.413 0 0 0 347.19 54.249 C 347.293 53.937 347.363 53.64 347.389 53.346 A 2.815 2.815 0 0 0 347.4 53.1 A 2.914 2.914 0 0 0 346.99 51.658 A 3.905 3.905 0 0 0 346.6 51.1 A 3.89 3.89 0 0 0 345.813 50.281 A 3.515 3.515 0 0 0 343.6 49.6 L 342.9 49.6 C 341.6 49.8 340.5 50.4 339.6 51.3 C 335.2 55.7 332.9 61.1 332.9 67.2 L 332.9 67.6 C 332.9 71.1 335.2 73.1 338.6 73.1 L 338.8 73.1 C 340.4 73.1 341.9 72.7 343.4 72.2 C 348.3 70.5 352.8 68 357.1 65.1 C 359.9 63.2 362.5 61.1 364.9 58.7 C 365.041 58.559 365.233 58.417 365.333 58.24 A 0.482 0.482 0 0 0 365.4 58 Z M 342.9 53.3 L 343.3 53.2 A 0.609 0.609 0 0 1 343.45 53.212 C 343.492 53.223 343.534 53.242 343.577 53.278 A 0.394 0.394 0 0 1 343.6 53.3 C 343.65 53.35 343.675 53.4 343.688 53.45 A 0.609 0.609 0 0 1 343.7 53.6 L 343.6 53.9 C 342.7 55 341.5 55.8 340.1 56.3 C 340.8 55.1 341.7 54 342.9 53.3 Z" id="10" vector-effect="non-scaling-stroke"/><path d="M 370.1 61.7 L 370.1 64 L 370.3 66 C 370.771 68.074 371.954 69.259 373.763 69.388 A 4.736 4.736 0 0 0 374.1 69.4 L 375 69.3 A 11.364 11.364 0 0 0 377.822 68.53 C 378.249 68.356 378.676 68.16 379.113 67.943 A 26.695 26.695 0 0 0 379.2 67.9 C 383.2 65.9 386.7 63.2 390.1 60.3 A 28.197 28.197 0 0 0 392.522 58.122 A 56.161 56.161 0 0 1 393.7 57 C 393.963 56.738 394.072 56.475 394.095 56.213 A 1.275 1.275 0 0 0 394.1 56.1 A 0.946 0.946 0 0 0 393.864 55.439 A 0.911 0.911 0 0 0 393.7 55.3 A 1.074 1.074 0 0 0 393.096 55.014 A 1.338 1.338 0 0 0 392.9 55 A 0.873 0.873 0 0 0 392.711 55.024 C 392.555 55.059 392.371 55.133 392.184 55.247 A 2.312 2.312 0 0 0 392.1 55.3 A 2.388 2.388 0 0 1 391.412 55.925 A 22.485 22.485 0 0 1 391.3 56 C 388.4 58.5 385.4 60.9 382.1 62.9 C 380 64.2 377.9 65.4 375.5 66 L 374.3 66.2 A 1.123 1.123 0 0 1 373.857 66.124 C 373.477 65.962 373.336 65.527 373.306 64.691 A 11.018 11.018 0 0 1 373.3 64.3 A 61.124 61.124 0 0 1 373.363 61.7 A 163.701 163.701 0 0 1 373.5 59.1 L 373.5 58.7 C 373.5 57.921 373.35 57.291 372.726 56.877 A 2.21 2.21 0 0 0 372.4 56.7 A 0.859 0.859 0 0 1 372.221 56.583 C 372.145 56.517 372.095 56.445 372.062 56.369 A 1.179 1.179 0 0 1 372 55.9 A 5.35 5.35 0 0 0 371.832 54.768 C 371.494 53.523 370.684 52.9 369.5 52.9 C 369.1 52.9 368.6 53 368.1 53.1 C 363.812 54.351 357.21 63.182 355.85 68.616 A 7.468 7.468 0 0 0 355.6 70.4 A 3.725 3.725 0 0 0 355.673 71.173 A 1.889 1.889 0 0 0 356.6 72.5 A 3.436 3.436 0 0 0 356.99 72.703 C 357.144 72.771 357.29 72.818 357.431 72.85 A 2.141 2.141 0 0 0 357.9 72.9 A 3.218 3.218 0 0 0 359.578 72.326 C 359.825 72.171 360.064 72 360.295 71.828 A 77.599 77.599 0 0 0 360.6 71.6 C 362.7 70 364.5 68 366.2 66.1 C 367.5 64.7 368.7 63.4 370.1 61.7 Z M 366.9 57.1 L 367.7 56.5 A 1.129 1.129 0 0 1 367.951 56.374 C 368.132 56.31 368.303 56.301 368.438 56.3 A 6.909 6.909 0 0 1 368.5 56.3 C 369.2 56.3 369.3 56.9 369.3 57.4 A 6.084 6.084 0 0 1 369.294 57.746 C 369.286 57.875 369.269 57.986 369.232 58.056 A 0.186 0.186 0 0 1 369.2 58.1 C 366.1 61.8 363 65.4 359.4 68.5 A 0.076 0.076 0 0 1 359.34 68.58 C 359.281 68.6 359.174 68.6 359 68.6 A 32.042 32.042 0 0 1 366.203 57.71 A 21.194 21.194 0 0 1 366.9 57.1 Z" id="11" vector-effect="non-scaling-stroke"/><path d="M 412.2 36 L 412.6 36.1 A 0.681 0.681 0 0 1 412.735 36.311 C 412.813 36.492 412.864 36.742 412.886 37.032 A 4.767 4.767 0 0 1 412.9 37.4 C 412.9 38.679 412.513 40.637 412.405 41.366 A 7.436 7.436 0 0 0 412.4 41.4 C 411.6 47.5 410.2 53.6 409.2 59.8 A 23.918 23.918 0 0 0 408.827 62.514 A 12.093 12.093 0 0 0 408.8 63.3 L 408.8 63.5 A 1.753 1.753 0 0 0 409.63 64.953 A 3.059 3.059 0 0 0 410.3 65.3 L 410.7 65.4 C 411.3 65.4 411.7 64.9 412.1 64.3 C 413.4 62.6 418.2 53.5 421.2 53.5 A 1.402 1.402 0 0 1 422.02 53.772 C 422.308 53.976 422.571 54.3 422.781 54.758 A 3.721 3.721 0 0 1 422.8 54.8 A 24.389 24.389 0 0 1 423.588 56.588 C 423.667 56.783 423.745 56.978 423.822 57.17 A 28.742 28.742 0 0 0 424.3 58.3 A 17.434 17.434 0 0 0 426.844 63.034 A 8.922 8.922 0 0 0 426.9 63.1 A 5.398 5.398 0 0 0 431.121 65 A 7.176 7.176 0 0 0 431.2 65 L 431.9 65 A 45.413 45.413 0 0 0 433.122 64.721 C 433.656 64.587 434.194 64.425 434.7 64.2 C 438.5 62.8 442 60.9 445.4 58.8 A 13.382 13.382 0 0 0 446.3 58.083 A 7.12 7.12 0 0 0 446.6 57.8 A 2.906 2.906 0 0 0 446.715 57.679 C 446.926 57.442 447 57.258 447 57 A 1.518 1.518 0 0 0 446.682 56.11 A 1.892 1.892 0 0 0 446.5 55.9 C 446.366 55.766 446.233 55.677 446.099 55.633 A 0.629 0.629 0 0 0 445.9 55.6 C 445.5 55.6 445.2 55.8 444.9 56 C 443.755 56.636 442.64 57.344 441.523 58.051 A 30.942 30.942 0 0 1 434 61.9 C 433.4 62.1 432.8 62.3 432.2 62.3 C 431.543 62.3 430.886 62.124 430.228 61.605 A 4.051 4.051 0 0 1 430.1 61.5 A 7.334 7.334 0 0 1 428.306 59.082 C 428.09 58.656 427.895 58.223 427.7 57.8 C 426.9 56 426.4 54.1 425.4 52.5 C 424.4 50.7 423.2 50.1 422 50.1 C 419.8 50.1 417.5 52.1 415.9 54 A 35.039 35.039 0 0 1 414.97 55.178 C 414.333 55.956 413.667 56.733 413 57.6 L 412.8 56.9 L 413 56 C 413.8 52.1 414.6 48.1 415.3 44.2 A 87.824 87.824 0 0 0 415.713 41.25 A 25.601 25.601 0 0 0 415.9 38.3 A 29.408 29.408 0 0 0 415.888 37.25 A 9.909 9.909 0 0 0 415.8 36.2 A 6.165 6.165 0 0 0 415.374 34.78 C 415.149 34.277 414.862 33.866 414.524 33.55 A 2.75 2.75 0 0 0 412.6 32.8 C 411.8 32.8 410.9 33.1 410 33.8 A 19.587 19.587 0 0 0 406.789 36.694 A 41.517 41.517 0 0 0 406.6 36.9 C 402.4 41.6 398.9 46.7 395.8 52 C 395.345 52.82 394.972 53.225 394.607 53.366 A 0.904 0.904 0 0 1 394.5 53.4 C 393.6 53.9 393 53.1 392.3 54.6 C 392.038 55.125 391.852 55.727 391.675 56.271 A 29.117 29.117 0 0 1 391.6 56.5 C 390.5 61.2 389.2 65.8 387.8 70.3 A 8.051 8.051 0 0 0 387.55 71.526 A 6.416 6.416 0 0 0 387.5 72.3 L 387.5 72.5 C 387.5 73.263 387.86 73.811 388.518 74.082 A 2.336 2.336 0 0 0 388.9 74.2 L 389.1 74.2 A 1.257 1.257 0 0 0 389.549 74.126 C 390.077 73.926 390.239 73.345 390.4 72.7 C 391.6 68 392.9 63.3 395.3 59 A 131.536 131.536 0 0 0 396.656 56.178 A 65.784 65.784 0 0 1 399.5 50.6 C 401.8 46.6 404.6 43 407.6 39.6 C 408.7 38.3 410 37.2 411.4 36.3 A 4.354 4.354 0 0 1 411.547 36.206 C 411.772 36.069 411.952 36 412.2 36 Z" id="12" vector-effect="non-scaling-stroke"/></g></svg>